<svg width="72" height="72" viewBox="0 0 72 72" fill="none" xmlns="http://www.w3.org/2000/svg">
<g opacity="0.4">
<path d="M36.1559 44.487L40.3979 48.729L53.1299 36L40.4009 23.271L36.1589 27.516L41.6399 33L19.0289 33L19.0289 39L41.6399 39L36.1559 44.487Z" fill="#FFFCF2"/>
<path fill-rule="evenodd" clip-rule="evenodd" d="M59.334 59.334C72.222 46.446 72.222 25.554 59.334 12.666C46.446 -0.222001 25.554 -0.222002 12.666 12.666C-0.222001 25.554 -0.222002 46.446 12.666 59.334C25.554 72.222 46.446 72.222 59.334 59.334ZM55.092 55.092C60.1555 50.0285 63.0002 43.1609 63.0002 36C63.0002 28.8391 60.1555 21.9715 55.092 16.908C50.0285 11.8445 43.1609 8.99983 36 8.99983C28.8391 8.99983 21.9715 11.8445 16.908 16.908C11.8445 21.9715 8.99983 28.8391 8.99983 36C8.99983 43.1609 11.8445 50.0285 16.908 55.092C21.9715 60.1555 28.8391 63.0002 36 63.0002C43.1609 63.0002 50.0285 60.1555 55.092 55.092Z" fill="#FFFCF2"/>
</g>
</svg>
