<svg width="56" height="56" viewBox="0 0 56 56" fill="none" xmlns="http://www.w3.org/2000/svg">
<g id="logo 1">
<path id="Vector" d="M47.9139 10.8818C49.0202 12.1448 49.9852 13.5079 50.8264 14.961C51.8403 16.7125 52.6537 18.5522 53.1986 20.4997C53.4977 21.5684 53.7379 22.6572 53.937 23.7493C54.0809 24.5391 54.1262 25.3482 54.1911 26.1507C54.2345 26.6865 53.8889 26.9277 53.3863 26.8185C52.3297 26.589 51.2793 26.3307 50.2208 26.1111C49.3583 25.9322 48.4899 25.7784 47.62 25.6392C46.7372 25.4979 45.8508 25.3762 44.9633 25.269C44.4151 25.2029 43.8613 25.1859 43.311 25.1355C42.9774 25.105 42.6386 25.0823 42.3148 25.0037C41.8423 24.8889 41.6789 24.4692 41.5057 24.0751C41.4776 24.0112 41.4633 23.9412 41.462 23.8337C41.4875 23.7631 41.5051 23.7297 41.4977 23.7033C41.2313 22.7502 41.0163 21.7782 40.6791 20.8506C40.331 19.8927 39.8638 18.978 39.4707 18.0423C39.5914 17.9854 39.7023 17.9451 39.7867 17.8736C40.2268 17.5007 40.6575 17.1168 41.0961 16.7422C42.3491 15.6721 43.6077 14.6085 44.8578 13.535C45.8812 12.6561 46.8955 11.7666 47.9139 10.8818Z" fill="#FFFCF2"/>
<path id="Vector_2" d="M2.73242 21.8382C2.95227 21.0499 3.13976 20.2508 3.398 19.4753C4.1917 17.0917 5.35114 14.8863 6.80956 12.8482C7.46135 11.9373 8.21002 11.092 8.95559 10.2533C9.50813 9.63172 10.104 9.04381 10.7206 8.48509C11.861 7.45174 13.0912 6.52894 14.4115 5.73726C15.2025 5.26292 16.0107 4.81001 16.8416 4.4108C18.7268 3.50509 20.6853 2.79699 22.7515 2.42887C23.7108 2.25795 24.6744 2.0793 25.6437 2.00412C26.9056 1.90626 28.1761 1.85916 29.4411 1.88311C30.3333 1.90001 31.2224 2.07221 32.1132 2.17282C32.2259 2.18555 32.3402 2.18463 32.4672 2.23466C32.4098 2.38802 32.3596 2.52062 32.2651 2.60182C31.1638 3.54874 30.0556 4.48769 28.9496 5.42923C27.9068 6.31699 26.8645 7.20531 25.7953 8.09218C25.373 8.04656 24.9774 8.00214 24.5634 7.94116C24.3623 7.89667 24.1802 7.84907 23.9968 7.84406C22.9847 7.81642 21.9723 7.79604 20.9599 7.78153C20.7972 7.7792 20.6339 7.81899 20.4423 7.83895C19.6818 7.93382 18.9459 8.00545 18.2195 8.13219C17.6977 8.22325 17.1887 8.3879 16.6489 8.52069C16.5336 8.5415 16.4423 8.55703 16.3536 8.58182C14.9847 8.96439 13.6994 9.54855 12.4244 10.2136C11.6646 10.6902 10.8948 11.1185 10.1934 11.6389C9.47715 12.1704 8.82802 12.7923 8.12829 13.3777C8.02694 13.4442 7.93587 13.4977 7.86837 13.5724C7.35627 14.1394 6.83016 14.6951 6.34343 15.2833C5.01522 16.8884 3.97719 18.6672 3.22288 20.6106C3.06344 21.0214 2.89611 21.4291 2.73242 21.8382Z" fill="#FFFCF2"/>
<path id="Vector_3" d="M25.8223 8.09352C26.8648 7.20544 27.9071 6.31711 28.95 5.42936C30.0559 4.48782 31.1641 3.54887 32.2655 2.60194C32.3599 2.52075 32.4102 2.38814 32.4818 2.2561C33.3343 2.41263 34.1934 2.56301 35.0359 2.77824C36.9883 3.27702 38.8291 4.06719 40.6148 5.03336C40.1293 5.50156 39.6444 5.93363 39.1546 6.36C38.5244 6.90854 37.8915 7.45388 37.2576 7.99812C36.4206 8.71676 35.5856 9.43781 34.7417 10.1483C34.2866 10.5315 33.8149 10.8948 33.329 11.2632C32.7266 10.9046 32.1607 10.5217 31.561 10.2026C30.953 9.87897 30.3115 9.61827 29.671 9.31306C28.9322 9.03829 28.2129 8.76237 27.4801 8.52862C26.9365 8.35521 26.3755 8.23656 25.8223 8.09352Z" fill="#FFFCF2"/>
<path id="Vector_4" d="M12.4447 10.2059C13.6997 9.54874 14.985 8.96458 16.3539 8.582C16.4426 8.55722 16.5339 8.54169 16.6466 8.54728C16.6506 8.72522 16.616 8.8777 16.6159 9.03022C16.6127 11.9602 16.6135 14.8901 16.6135 17.8201C16.6135 18.3895 16.6135 18.9589 16.6135 19.5283C16.6135 19.6745 16.5945 19.8321 16.8068 19.851C16.557 20.2532 16.2954 20.6487 16.0597 21.059C15.5038 22.0271 15.0529 23.0438 14.7516 24.1196C14.5804 24.7311 14.4887 25.3659 14.3001 25.9712C14.1294 26.519 13.9817 26.7475 13.3774 26.6947C13.1036 26.6708 12.8286 26.6615 12.5272 26.6097C12.4609 26.3422 12.3877 26.1107 12.3874 25.879C12.3808 20.952 12.3813 16.0249 12.3851 11.0978C12.3853 10.8005 12.424 10.5032 12.4447 10.2059Z" fill="#B0B0B0"/>
<path id="Vector_5" d="M12.4243 10.2136C12.4236 10.503 12.3849 10.8003 12.3847 11.0977C12.3809 16.0247 12.3804 20.9518 12.387 25.8788C12.3873 26.1105 12.4605 26.3421 12.5031 26.5972C11.9453 26.5507 11.3809 26.5002 10.8238 26.4064C9.97976 26.2643 9.14076 26.0922 8.28457 25.8874C8.22998 25.6321 8.15635 25.4222 8.15596 25.2123C8.1486 21.2664 8.14991 17.3205 8.14941 13.3746C8.82794 12.7923 9.47707 12.1704 10.1933 11.639C10.8948 11.1185 11.6645 10.6903 12.4243 10.2136Z" fill="#B0B0B0"/>
<path id="Vector_6" d="M16.3022 41.6164C15.5086 41.5584 14.7103 41.5374 13.9227 41.4339C12.7459 41.2791 11.5716 41.0932 10.4057 40.8712C9.04314 40.6118 7.71939 40.2025 6.42655 39.6976C6.25863 39.6321 6.09236 39.5623 5.94482 39.4722C6.42402 39.4878 6.88371 39.5256 7.3695 39.5675C8.10404 39.6111 8.81249 39.6506 9.54907 39.6926C10.2554 39.6546 10.937 39.6443 11.611 39.5673C12.857 39.425 14.1057 39.2848 15.3406 39.0706C18.5345 38.5167 21.5924 37.4991 24.5599 36.2143C26.098 35.5483 27.6022 34.8043 29.1214 34.0948C32.5804 32.4795 36.1635 31.2155 39.8794 30.3409C41.0113 30.0746 42.1624 29.8897 43.3028 29.6904C43.1939 29.7876 43.0951 29.8797 42.9785 29.933C42.4522 30.1735 41.9225 30.4065 41.3912 30.6359C39.3047 31.5366 37.2155 32.4312 35.1304 33.3354C33.1492 34.1945 31.1738 35.0671 29.1924 35.9257C26.9649 36.891 24.732 37.8435 22.5043 38.8084C20.4943 39.679 18.4879 40.5578 16.4822 41.4381C16.41 41.4698 16.3616 41.5557 16.3022 41.6164Z" fill="#B0B0B0"/>
<path id="Vector_7" d="M43.3048 29.6673C42.1625 29.8895 41.0114 30.0744 39.8795 30.3408C36.1636 31.2153 32.5805 32.4793 29.1215 34.0946C27.6023 34.8041 26.0981 35.5481 24.56 36.2141C21.5925 37.4989 18.5345 38.5165 15.3406 39.0704C14.1057 39.2846 12.857 39.4248 11.611 39.5671C10.937 39.6441 10.2554 39.6544 9.55176 39.6708C9.60332 39.5844 9.67128 39.4998 9.75915 39.4639C10.0075 39.3624 10.263 39.278 10.5174 39.192C13.5246 38.175 16.5321 37.1593 19.5394 36.1426C22.4193 35.169 25.2989 34.1947 28.1787 33.2207C31.176 32.2069 34.1731 31.1926 37.1707 30.1797C39.1202 29.521 41.0709 28.8658 43.019 28.2031C43.1245 28.1672 43.2111 28.0758 43.3064 28.0103C43.8537 28.0625 44.4016 28.1084 44.9479 28.1689C45.4941 28.2294 46.0402 28.2945 46.5837 28.3758C47.2761 28.4795 47.9696 28.5825 48.6558 28.72C49.6886 28.9269 50.7154 29.1635 51.726 29.4102C51.6035 29.432 51.4997 29.431 51.3701 29.4275C50.5937 29.3486 49.843 29.2723 49.0634 29.1927C48.2005 29.2087 47.3664 29.2266 46.5325 29.2494C46.4526 29.2516 46.3735 29.2844 46.266 29.3022C45.7308 29.3457 45.2218 29.376 44.7169 29.4385C44.244 29.4971 43.7753 29.5897 43.3048 29.6673Z" fill="#FFFCF2"/>
<path id="Vector_8" d="M33.3506 11.2671C33.8148 10.8948 34.2866 10.5315 34.7416 10.1484C35.5855 9.43788 36.4205 8.71682 37.2575 7.99819C37.8914 7.45395 38.5244 6.90861 39.1546 6.36007C39.6444 5.9337 40.1292 5.50163 40.6253 5.05273C41.5951 5.63459 42.5651 6.22183 43.5129 6.84298C43.9792 7.14859 44.4044 7.51695 44.8478 7.89565C44.0188 8.66059 43.1945 9.39174 42.3605 10.1116C41.5657 10.7976 40.7573 11.468 39.961 12.1524C39.1486 12.8506 38.35 13.5651 37.5296 14.2536C37.3777 14.3811 37.1507 14.4193 36.9399 14.4894C36.8038 14.3509 36.6944 14.2131 36.5672 14.0943C35.9968 13.5616 35.4213 13.0343 34.8389 12.4878C34.7727 12.4207 34.7151 12.3708 34.6488 12.3031C34.5845 12.2542 34.529 12.2232 34.4637 12.1737C34.4001 12.1074 34.3484 12.057 34.2922 12.0123C33.9789 11.7631 33.6646 11.5153 33.3506 11.2671Z" fill="#FFFCF2"/>
<path id="Vector_9" d="M36.958 14.4987C37.1504 14.4193 37.3773 14.3812 37.5293 14.2536C38.3497 13.5651 39.1483 12.8506 39.9607 12.1524C40.757 11.468 41.5653 10.7976 42.3602 10.1116C43.1942 9.39175 44.0185 8.6606 44.8561 7.91504C45.7346 8.71663 46.6062 9.53539 47.4716 10.3605C47.6264 10.5081 47.756 10.6822 47.9055 10.863C46.8954 11.7668 45.881 12.6562 44.8576 13.5351C43.6075 14.6087 42.349 15.6723 41.0959 16.7424C40.6573 17.117 40.2266 17.5008 39.7866 17.8737C39.7022 17.9453 39.5913 17.9856 39.4535 18.03C39.1291 17.5532 38.8685 17.0692 38.5526 16.6243C38.0401 15.9023 37.4914 15.2059 36.958 14.4987Z" fill="#FFFCF2"/>
<path id="Vector_10" d="M8.12822 13.3779C8.14992 17.3207 8.14861 21.2666 8.15597 25.2125C8.15636 25.4224 8.22999 25.6322 8.27123 25.8667C7.70503 25.7488 7.12929 25.6316 6.57085 25.4585C5.4815 25.1208 4.40088 24.7548 3.31849 24.395C2.5614 24.1433 2.33133 23.741 2.48501 22.9599C2.54329 22.6637 2.60418 22.368 2.68958 22.0352C2.72197 21.9441 2.72866 21.8898 2.73535 21.8355C2.73535 21.8355 2.73575 21.8388 2.73405 21.8386C2.89604 21.4293 3.06337 21.0216 3.22281 20.6108C3.97712 18.6674 5.01515 16.8886 6.34336 15.2835C6.83009 14.6953 7.3562 14.1396 7.8683 13.5726C7.9358 13.4978 8.02687 13.4444 8.12822 13.3779Z" fill="#B0B0B0"/>
<path id="Vector_11" d="M16.8258 19.8424C16.5941 19.8321 16.6132 19.6745 16.6132 19.5284C16.6132 18.9589 16.6132 18.3895 16.6132 17.8201C16.6132 14.8902 16.6123 11.9602 16.6155 9.03027C16.6157 8.87775 16.6503 8.72526 16.6714 8.54636C17.1887 8.38813 17.6977 8.22348 18.2195 8.13242C18.9458 8.00568 19.6818 7.93405 20.4423 7.86841C20.4709 10.5259 20.4722 13.1538 20.4682 15.7817C20.4679 15.9557 20.4713 16.1091 20.6605 16.1836C20.2271 16.5127 19.7706 16.8159 19.3658 17.1771C18.7949 17.6866 18.2493 18.2266 17.7181 18.7779C17.4021 19.1058 17.1345 19.4802 16.8258 19.8424Z" fill="#B0B0B0"/>
<path id="Vector_12" d="M7.34339 39.5632C6.8837 39.5254 6.424 39.4876 5.9362 39.4509C5.66648 39.3621 5.42488 39.2723 5.18262 39.143C5.51528 38.9705 5.84364 38.823 6.18275 38.707C7.6011 38.2214 9.02282 37.7457 10.443 37.2656C13.4401 36.2523 16.437 35.2381 19.4341 34.2248C20.8543 33.7447 22.275 33.266 23.6952 32.7859C26.6923 31.7725 29.6891 30.7581 32.6863 29.7452C34.3123 29.1957 35.9397 28.6504 37.5638 28.0954C37.6649 28.0608 37.7425 27.9572 37.831 27.8858C38.9317 27.8831 40.0323 27.8804 41.1576 27.9031C41.1056 27.9749 41.0341 28.0359 40.9513 28.0652C40.4058 28.2585 39.8587 28.4473 39.3106 28.6332C36.3343 29.6425 33.358 30.6518 30.3808 31.6584C27.4721 32.6418 24.5622 33.6214 21.6531 34.6037C18.6461 35.619 15.6396 36.6359 12.6328 37.6518C10.958 38.2176 9.2823 38.781 7.60968 39.3533C7.50878 39.3878 7.43161 39.4916 7.34339 39.5632Z" fill="#FFFCF2"/>
<path id="Vector_13" d="M46.2936 29.3032C46.3731 29.2846 46.4522 29.2518 46.5321 29.2496C47.366 29.2267 48.2001 29.2088 49.0627 29.2144C49.0176 29.3179 48.9582 29.4275 48.8674 29.4697C48.3994 29.6875 47.9239 29.8896 47.4498 30.0943C45.6483 30.872 43.8452 31.6459 42.045 32.4265C40.4056 33.1374 38.7708 33.8589 37.1311 34.569C35.5201 35.2668 33.9036 35.9516 32.2931 36.6504C30.4644 37.444 28.6414 38.2508 26.8126 39.0443C25.2021 39.7431 23.5851 40.4269 21.9763 41.1294C21.7295 41.2372 21.511 41.4099 21.2794 41.5525C20.8032 41.5774 20.327 41.6023 19.7925 41.6275C19.316 41.6271 18.8978 41.6265 18.4829 41.6044C18.568 41.5245 18.6427 41.4506 18.7325 41.4101C19.2317 41.1853 19.7346 40.9686 20.2363 40.7492C21.7319 40.0952 23.226 39.4379 24.7235 38.7883C26.5239 38.0074 28.3285 37.2359 30.129 36.4551C31.7687 35.7441 33.4039 35.0227 35.0438 34.3121C36.9866 33.4701 38.9329 32.6361 40.8768 31.7965C42.5742 31.0633 44.2715 30.3298 45.9647 29.587C46.0915 29.5314 46.1848 29.3996 46.2936 29.3032Z" fill="#B0B0B0"/>
<path id="Vector_14" d="M21.3076 41.5571C21.511 41.4099 21.7295 41.2372 21.9764 41.1294C23.5852 40.427 25.2022 39.7431 26.8127 39.0443C28.6414 38.2508 30.4644 37.444 32.2932 36.6505C33.9037 35.9516 35.5202 35.2668 37.1311 34.5691C38.7708 33.8589 40.4056 33.1374 42.045 32.4265C43.8452 31.6459 45.6484 30.8721 47.4498 30.0944C47.924 29.8897 48.3994 29.6876 48.8675 29.4698C48.9583 29.4275 49.0176 29.3179 49.0917 29.2178C49.8426 29.2725 50.5934 29.3488 51.3665 29.4494C51.0508 29.6405 50.7183 29.8202 50.3735 29.972C48.5399 30.7794 46.7053 31.5843 44.8673 32.3815C42.7834 33.2853 40.694 34.1763 38.61 35.0799C36.6299 35.9385 34.6552 36.8096 32.6754 37.6689C30.4022 38.6555 28.1242 39.6309 25.8533 40.6224C25.4981 40.7775 25.1691 40.9923 24.828 41.1796C24.828 41.1796 24.7995 41.1896 24.7606 41.1907C24.6329 41.208 24.544 41.2242 24.4551 41.2405C24.4093 41.2447 24.3636 41.249 24.2698 41.2536C24.1128 41.2706 24.0039 41.2872 23.8949 41.3038C23.6348 41.3474 23.3762 41.4077 23.1143 41.4312C22.5223 41.4843 21.9287 41.5193 21.3076 41.5571Z" fill="#B0B0B0"/>
<path id="Vector_15" d="M24.855 41.1837C25.1693 40.9921 25.4983 40.7773 25.8534 40.6222C28.1244 39.6307 30.4024 38.6553 32.6755 37.6687C34.6553 36.8094 36.6301 35.9383 38.6102 35.0797C40.6942 34.1761 42.7836 33.2851 44.8675 32.3813C46.7054 31.5841 48.5401 30.7792 50.3736 29.9718C50.7184 29.82 51.051 29.6403 51.3924 29.4518C51.4995 29.431 51.6033 29.432 51.733 29.4331C52.1992 29.5384 52.6396 29.643 53.0796 29.7496C53.1072 29.7563 53.1309 29.7791 53.1775 29.8274C53.1209 29.9325 53.0551 30.0304 52.9636 30.0725C52.4571 30.3054 51.9445 30.5249 51.4339 30.7487C50.0816 31.3412 48.731 31.9379 47.3763 32.5248C45.7662 33.2224 44.1509 33.9078 42.5408 34.6055C41.1861 35.1924 39.8372 35.7928 38.483 36.381C36.8261 37.1006 35.1663 37.8135 33.5079 38.5297C32.3045 39.0494 31.0996 39.566 29.8998 40.0942C29.7511 40.1596 29.6299 40.2876 29.4959 40.3866C29.4959 40.3866 29.4937 40.3824 29.4751 40.3828C29.4073 40.3992 29.3579 40.4152 29.3086 40.4312C28.683 40.5498 28.0592 40.6785 27.4315 40.7846C26.5832 40.9281 25.7318 41.0543 24.855 41.1837Z" fill="#B0B0B0"/>
<path id="Vector_16" d="M19.4752 29.7525C21.4384 29.7046 23.3891 29.5114 25.3558 29.2717C25.3116 29.341 25.2506 29.4008 25.1777 29.4266C24.3401 29.723 23.5029 30.0204 22.6616 30.3057C19.6567 31.3244 16.6508 32.3403 13.6441 33.3537C12.3217 33.7994 10.9953 34.233 9.67285 34.6787C7.60677 35.3748 5.54254 36.0766 3.47753 36.776C3.3195 36.3339 3.16147 35.8919 3.02295 35.4239C6.1049 34.3628 9.167 33.3266 12.2299 32.2928C14.5493 31.51 16.87 30.7313 19.1883 29.9451C19.2936 29.9094 19.38 29.818 19.4752 29.7525Z" fill="#FFFCF2"/>
<path id="Vector_17" d="M15.6749 51.025C15.6749 51.025 15.6456 51.0213 15.6357 50.9955C15.7979 50.8839 15.9621 50.7736 16.143 50.716C18.4846 49.9701 20.8286 49.2319 23.1719 48.4914C24.8064 47.9749 26.4405 47.4573 28.0751 46.9412C30.8717 46.0582 33.6686 45.1766 36.4651 44.2934C38.0602 43.7896 39.6553 43.2859 41.248 42.7747C41.3633 42.7377 41.4591 42.6399 41.5639 42.5703C42.1774 42.6248 42.791 42.6779 43.4042 42.7344C43.6964 42.7613 43.9879 42.7945 44.2732 42.8556C44.123 42.9435 43.9822 43.0098 43.8351 43.0564C42.3196 43.5362 40.8028 44.0118 39.287 44.4907C37.2791 45.1252 35.2716 45.7614 33.2641 46.3972C30.6856 47.2139 28.1075 48.0321 25.5286 48.8476C23.1566 49.5976 20.7832 50.3433 18.4128 51.0983C18.2792 51.1409 18.1671 51.2511 18.0178 51.331C17.6948 51.3009 17.3981 51.2767 17.1036 51.2366C16.6266 51.1716 16.1511 51.0961 15.6749 51.025Z" fill="#FFFCF2"/>
<path id="Vector_18" d="M41.5404 42.5579C41.4591 42.64 41.3633 42.7378 41.248 42.7748C39.6553 43.286 38.0602 43.7898 36.4651 44.2935C33.6686 45.1767 30.8717 46.0584 28.0752 46.9413C26.4405 47.4574 24.8064 47.975 23.1719 48.4915C20.8286 49.232 18.4846 49.9702 16.143 50.7161C15.9621 50.7737 15.7979 50.8841 15.6217 50.9909C15.1669 50.7608 14.7163 50.5096 14.2686 50.2208C14.691 50.0412 15.1086 49.8927 15.5307 49.7583C17.1152 49.2538 18.7013 48.7541 20.2866 48.2522C23.1227 47.3544 25.9589 46.4573 28.7945 45.558C29.8876 45.2113 30.9784 44.857 32.0716 44.5103C34.0505 43.8828 36.0308 43.2597 38.0086 42.6285C38.1042 42.598 38.1809 42.5081 38.2664 42.4458C39.3238 42.4647 40.3811 42.4833 41.4385 42.5043C41.4648 42.5048 41.4907 42.5311 41.5404 42.5579Z" fill="#FFFCF2"/>
<path id="Vector_19" d="M20.676 16.18C20.4714 16.1089 20.468 15.9555 20.4683 15.7815C20.4723 13.1536 20.471 10.5257 20.471 7.86859C20.634 7.81905 20.7973 7.77926 20.9599 7.78159C21.9724 7.7961 22.9848 7.81648 23.9969 7.84412C24.1802 7.84913 24.3624 7.89672 24.5491 7.9596C24.3354 8.07836 24.3304 8.26796 24.3297 8.455C24.3274 9.03524 24.3288 9.6155 24.3288 10.1958C24.3288 11.4391 24.3275 12.6825 24.3297 13.9259C24.3304 14.2949 24.3969 14.3414 24.754 14.2879C24.8597 14.2721 24.9726 14.3037 25.0822 14.3135C24.3957 14.5406 23.6909 14.7245 23.0274 15.006C22.275 15.3251 21.5597 15.7315 20.7945 16.113C20.7429 16.1349 20.7296 16.1484 20.721 16.1665C20.7111 16.1699 20.7012 16.1732 20.676 16.18Z" fill="#B0B0B0"/>
<path id="Vector_20" d="M25.1087 14.3125C24.9728 14.3038 24.86 14.2723 24.7542 14.2881C24.3971 14.3416 24.3306 14.2951 24.3299 13.9261C24.3277 12.6827 24.329 11.4393 24.329 10.1959C24.329 9.61566 24.3276 9.0354 24.3299 8.45516C24.3306 8.26811 24.3356 8.07851 24.5677 7.97632C24.9777 8.00236 25.3733 8.04677 25.7956 8.0924C26.3754 8.23665 26.9365 8.3553 27.48 8.5287C28.2128 8.76246 28.9321 9.03837 29.6498 9.32296C29.5721 9.48623 29.4422 9.622 29.4405 9.75934C29.4249 11.0336 29.4249 12.3082 29.4395 13.5824C29.4413 13.7395 29.5546 13.8953 29.6163 14.0517C29.0933 14.0342 28.567 13.9715 28.048 14.0094C27.1366 14.0761 26.2298 14.2047 25.3208 14.3062C25.2594 14.313 25.1969 14.3098 25.1087 14.3125Z" fill="#B0B0B0"/>
<path id="Vector_21" d="M7.36963 39.5675C7.43176 39.4919 7.50893 39.388 7.60983 39.3535C9.28245 38.7812 10.9581 38.2179 12.633 37.652C15.6398 36.6361 18.6463 35.6193 21.6533 34.6039C24.5623 33.6216 27.4723 32.6421 30.3809 31.6587C33.3582 30.6521 36.3345 29.6427 39.3108 28.6334C39.8589 28.4476 40.406 28.2587 40.9515 28.0654C41.0342 28.0361 41.1057 27.9751 41.1866 27.9075C41.8774 27.9249 42.5639 27.9636 43.2785 28.0064C43.2112 28.076 43.1246 28.1674 43.0191 28.2032C41.071 28.866 39.1203 29.5212 37.1708 30.1799C34.1732 31.1928 31.1761 32.2071 28.1788 33.2209C25.299 34.1949 22.4194 35.1692 19.5395 36.1428C16.5322 37.1595 13.5247 38.1752 10.5175 39.1921C10.2631 39.2782 10.0076 39.3626 9.75923 39.4641C9.67135 39.5 9.6034 39.5846 9.52371 39.6686C8.81263 39.6506 8.10417 39.6111 7.36963 39.5675Z" fill="#FFFCF2"/>
<path id="Vector_22" d="M53.9985 30.551C54.0218 30.8853 54.045 31.2196 54.0486 31.5989C54.023 31.7172 54.017 31.7904 54.0109 31.8636C54.0093 31.8901 54.0077 31.9165 53.9783 31.963C53.7958 32.039 53.6376 32.0869 53.4869 32.1522C52.7662 32.4641 52.0486 32.7833 51.328 33.0952C49.8586 33.7313 48.3869 34.3619 46.9182 34.9995C45.5724 35.5838 44.2305 36.1772 42.8846 36.7614C41.5581 37.3371 40.2374 37.928 38.8975 38.4709C37.9601 38.8508 37.0939 39.4046 36.0908 39.623C35.0751 39.7101 34.0593 39.7964 33.0438 39.8862C32.9551 39.894 32.8685 39.9251 32.7554 39.9187C32.8165 39.8147 32.8908 39.7099 32.9918 39.6647C33.7933 39.3063 34.6002 38.96 35.4048 38.6085C36.607 38.0832 37.8074 37.5535 39.011 37.0315C40.4797 36.3944 41.9512 35.7639 43.421 35.1296C44.6064 34.618 45.7919 34.1067 46.976 33.5922C48.3214 33.0077 49.6643 32.4174 51.0102 31.834C52.0048 31.4028 53.0023 30.9784 53.9985 30.551Z" fill="#B0B0B0"/>
<path id="Vector_23" d="M10.944 47.7894C10.2593 47.1324 9.54923 46.4994 8.89759 45.8112C8.33807 45.2202 7.82976 44.578 7.33356 43.9317C7.20448 43.7636 7.11148 43.4664 7.16948 43.2809C7.24745 43.0316 7.53405 43.1297 7.74573 43.1825C8.35196 43.3335 8.95374 43.5055 9.5648 43.6334C10.4155 43.8113 11.2688 43.9858 12.1286 44.1081C13.0959 44.2455 14.0695 44.3688 15.0443 44.4166C16.6606 44.4958 18.28 44.5149 19.8983 44.5471C20.2561 44.5543 20.6149 44.5107 20.9976 44.5163C20.9164 44.5988 20.8165 44.674 20.7041 44.7095C18.9255 45.272 17.1449 45.8278 15.3657 46.3885C13.8911 46.8532 12.4178 47.3223 10.944 47.7894Z" fill="#FFFCF2"/>
<path id="Vector_24" d="M46.2659 29.3022C46.1851 29.3995 46.0918 29.5313 45.965 29.5869C44.2718 30.3298 42.5745 31.0633 40.8771 31.7964C38.9332 32.636 36.987 33.4701 35.0441 34.312C33.4042 35.0226 31.769 35.744 30.1293 36.4551C28.3288 37.2359 26.5242 38.0073 24.7238 38.7883C23.2263 39.4378 21.7322 40.0952 20.2366 40.7491C19.7349 40.9685 19.2321 41.1853 18.7328 41.41C18.643 41.4505 18.5683 41.5244 18.4541 41.6047C17.8165 41.6279 17.2113 41.6293 16.6062 41.6307C16.5215 41.629 16.4368 41.6272 16.3271 41.6209C16.3616 41.5556 16.41 41.4697 16.4822 41.438C18.4879 40.5577 20.4943 39.6789 22.5043 38.8083C24.732 37.8434 26.9649 36.8909 29.1924 35.9256C31.1738 35.067 33.1492 34.1944 35.1304 33.3353C37.2154 32.4311 39.3047 31.5365 41.3912 30.6358C41.9225 30.4064 42.4522 30.1734 42.9785 29.9329C43.0951 29.8796 43.1939 29.7875 43.3028 29.6903C43.7753 29.5898 44.2439 29.4972 44.7168 29.4386C45.2218 29.3761 45.7307 29.3458 46.2659 29.3022Z" fill="#B0B0B0"/>
<path id="Vector_25" d="M36.1191 39.6277C37.0942 39.4047 37.9605 38.8508 38.8978 38.471C40.2378 37.928 41.5584 37.3372 42.885 36.7614C44.2309 36.1773 45.5727 35.5839 46.9185 34.9996C48.3872 34.3619 49.859 33.7313 51.3283 33.0953C52.049 32.7833 52.7665 32.4642 53.4872 32.1522C53.6379 32.087 53.7961 32.039 53.9742 31.9824C53.8971 32.5466 53.7968 33.1114 53.6724 33.7108C53.2716 33.9144 52.8958 34.0858 52.5177 34.2518C51.317 34.7792 50.1168 35.3074 48.9139 35.8297C47.5883 36.4054 46.2599 36.9746 44.9329 37.5469C43.7385 38.062 42.5418 38.5718 41.3519 39.0969C41.0586 39.2263 40.7877 39.4063 40.5065 39.563C40.2968 39.5655 40.0871 39.5679 39.8292 39.5501C39.1974 39.5237 38.6138 39.5134 38.0303 39.5139C37.8607 39.5141 37.691 39.5456 37.5214 39.5627C37.0633 39.5859 36.6052 39.6091 36.1191 39.6277Z" fill="#B0B0B0"/>
<path id="Vector_26" d="M15.6836 51.0453C16.1513 51.0962 16.6269 51.1717 17.1038 51.2367C17.3983 51.2769 17.695 51.3011 18.0461 51.3331C18.6013 51.3504 19.1011 51.3669 19.6297 51.3869C20.2123 51.3516 20.7708 51.346 21.3188 51.2672C22.4178 51.1093 23.5222 50.9615 24.6044 50.72C27.1287 50.1567 29.5033 49.1748 31.8154 48.0301C32.9237 47.4814 34.0455 46.96 35.184 46.4224C35.4181 46.3349 35.6318 46.2567 35.8404 46.1669C38.0441 45.2187 40.2815 44.368 42.6211 43.834C42.5443 43.9295 42.4801 44.0287 42.3893 44.071C41.7338 44.3765 41.0737 44.6723 40.4136 44.9679C38.8769 45.6559 37.3384 46.3399 35.8025 47.0298C34.4829 47.6225 33.1673 48.2238 31.8476 48.8162C30.0948 49.6031 28.3395 50.3845 26.5858 51.1694C25.1903 51.794 23.7937 52.4161 22.4024 53.0499C22.1815 53.1505 21.986 53.307 21.7788 53.4376C20.5311 53.0247 19.2688 52.65 18.0407 52.1851C17.2324 51.8792 16.4732 51.4433 15.6836 51.0453Z" fill="#B0B0B0"/>
<path id="Vector_27" d="M3.48047 36.8003C5.54262 36.0767 7.60685 35.375 9.67294 34.6788C10.9954 34.2332 12.3218 33.7996 13.6442 33.3539C16.6509 32.3404 19.6568 31.3246 22.6616 30.3058C23.503 30.0206 24.3402 29.7231 25.1777 29.4268C25.2507 29.401 25.3116 29.3412 25.3823 29.2761C26.4598 29.0854 27.5331 28.9147 28.6068 28.7467C29.2787 28.6416 29.9514 28.5406 30.6465 28.4636C30.6079 28.5368 30.5536 28.6045 30.4841 28.6285C28.8922 29.1779 27.2999 29.7261 25.7051 30.2673C22.75 31.2701 19.7938 32.2696 16.8371 33.2678C14.7517 33.9719 12.6651 34.6727 10.5784 35.3729C8.31553 36.1322 6.05192 36.8892 3.78866 37.6472C3.68688 37.373 3.5851 37.0988 3.48047 36.8003Z" fill="#FFFCF2"/>
<path id="Vector_28" d="M19.4484 29.7485C19.3801 29.8181 19.2937 29.9096 19.1883 29.9453C16.8701 30.7315 14.5493 31.5101 12.23 32.293C9.16708 33.3268 6.10498 34.363 3.0199 35.4011C2.86983 34.9022 2.74239 34.4004 2.64209 33.8706C4.74002 33.1383 6.81033 32.4325 8.88178 31.7301C10.7092 31.1104 12.5383 30.4958 14.3647 29.8731C14.4601 29.8406 14.5367 29.7526 14.622 29.6904C16.221 29.7804 17.8198 29.8873 19.4484 29.7485Z" fill="#FFFCF2"/>
<path id="Vector_29" d="M40.5322 39.5686C40.7874 39.4063 41.0584 39.2263 41.3516 39.0968C42.5416 38.5717 43.7383 38.062 44.9326 37.5469C46.2597 36.9746 47.5881 36.4053 48.9137 35.8297C50.1165 35.3074 51.3168 34.7791 52.5175 34.2518C52.8956 34.0858 53.2713 33.9143 53.6669 33.7356C53.5494 34.2726 53.4146 34.8197 53.276 35.3659C53.239 35.5115 53.1903 35.6541 53.1231 35.832C53.0924 35.9003 53.0855 35.9348 53.0787 35.9693C53.0787 35.9693 53.0761 35.9648 53.0539 35.9656C52.9323 35.9927 52.8276 36.0068 52.7344 36.0472C51.5788 36.5479 50.4257 37.0546 49.2702 37.5556C48.0866 38.0688 46.8979 38.5704 45.7175 39.091C45.1536 39.3398 44.6038 39.6208 44.0477 39.8872C43.2399 39.8047 42.4327 39.7174 41.6242 39.6428C41.3893 39.6211 41.1507 39.642 40.9144 39.6315C40.795 39.6261 40.6769 39.5941 40.5322 39.5686Z" fill="#B0B0B0"/>
<path id="Vector_30" d="M54.0027 30.5288C53.0025 30.9784 52.005 31.4028 51.0104 31.834C49.6645 32.4175 48.3216 33.0077 46.9762 33.5922C45.7921 34.1067 44.6066 34.618 43.4212 35.1296C41.9514 35.7639 40.4799 36.3945 39.0112 37.0315C37.8076 37.5535 36.6072 38.0832 35.405 38.6085C34.6004 38.96 33.7935 39.3063 32.992 39.6648C32.891 39.7099 32.8167 39.8147 32.7294 39.9142C31.8904 40.0589 31.0522 40.1825 30.2135 40.3029C29.993 40.3346 29.7711 40.3565 29.5229 40.3848C29.63 40.2877 29.7512 40.1598 29.8999 40.0943C31.0997 39.5662 32.3045 39.0495 33.508 38.5298C35.1664 37.8137 36.8262 37.1007 38.4831 36.3811C39.8373 35.7929 41.1862 35.1926 42.5409 34.6056C44.1509 33.908 45.7663 33.2225 47.3764 32.525C48.7311 31.938 50.0816 31.3414 51.4339 30.7488C51.9446 30.5251 52.4572 30.3055 52.9636 30.0726C53.0551 30.0305 53.121 29.9327 53.1991 29.8384C53.5952 29.8983 53.8395 30.1573 54.0027 30.5288Z" fill="#B0B0B0"/>
<path id="Vector_31" d="M3.79199 37.6697C6.05186 36.8892 8.31547 36.1322 10.5783 35.3729C12.665 34.6727 14.7516 33.9719 16.837 33.2678C19.7937 32.2696 22.75 31.2701 25.7051 30.2673C27.2998 29.7261 28.8921 29.1779 30.4841 28.6285C30.5535 28.6045 30.6079 28.5368 30.6723 28.4677C31.6792 28.3385 32.6831 28.2315 33.6866 28.1217C33.7453 28.1153 33.8015 28.0854 33.8805 28.0907C33.7559 28.1841 33.6147 28.2677 33.4627 28.3201C31.8115 28.8891 30.1598 29.4568 28.5059 30.0181C25.55 31.0212 22.5929 32.0204 19.6358 33.0197C16.708 34.0092 13.7796 34.9966 10.8516 35.9852C8.92239 36.6366 6.99304 37.2877 5.06458 37.9414C4.76158 38.0441 4.46308 38.1601 4.1625 38.2699C4.04013 38.0773 3.91776 37.8847 3.79199 37.6697Z" fill="#FFFCF2"/>
<path id="Vector_32" d="M29.6418 14.0568C29.5547 13.8952 29.4413 13.7394 29.4395 13.5823C29.425 12.3081 29.4249 11.0335 29.4406 9.75927C29.4423 9.62193 29.5721 9.48616 29.6636 9.33984C30.3115 9.61828 30.9529 9.87899 31.5609 10.2026C32.1607 10.5218 32.7265 10.9046 33.3289 11.2633C33.6646 11.5153 33.9789 11.763 34.2922 12.0122C34.3484 12.0569 34.4001 12.1074 34.4473 12.192C34.2036 12.2354 34.152 12.3634 34.1549 12.5866C34.1668 13.5161 34.1589 14.4458 34.1583 15.3754C33.5377 15.1349 32.9304 14.8474 32.293 14.6658C31.498 14.4393 30.6781 14.3005 29.8692 14.1225C29.8008 14.1074 29.7345 14.0824 29.6418 14.0568Z" fill="#B0B0B0"/>
<path id="Vector_33" d="M28.4977 43.5036C29.3162 43.3602 30.133 43.2061 30.9537 43.0767C31.6166 42.9721 32.2837 42.8938 32.9497 42.8104C33.3339 42.7623 33.7198 42.7272 34.1281 42.7119C33.9961 42.8098 33.8465 42.9003 33.6846 42.9516C32.385 43.3638 31.0825 43.7666 29.7821 44.1761C27.831 44.7905 25.8806 45.4067 23.9306 46.0244C21.6848 46.7359 19.4394 47.4483 17.1947 48.1632C15.8364 48.5958 14.4799 49.0341 13.1225 49.4699C12.8172 49.2548 12.5119 49.0398 12.2192 48.7958C13.4809 48.3691 14.7295 47.9698 15.9792 47.5738C18.4101 46.8036 20.8422 46.0374 23.2725 45.2653C24.8373 44.7682 26.4002 44.2655 27.9617 43.7583C28.0671 43.7241 28.1536 43.6313 28.2488 43.5658C28.2758 43.562 28.3028 43.5582 28.3596 43.5665C28.4255 43.5536 28.4616 43.5286 28.4977 43.5036Z" fill="#FFFCF2"/>
<path id="Vector_34" d="M4.17139 38.2891C4.46314 38.1599 4.76164 38.0439 5.06464 37.9412C6.9931 37.2875 8.92246 36.6364 10.8517 35.985C13.7797 34.9964 16.7081 34.009 19.6358 33.0195C22.5929 32.0202 25.5501 31.0209 28.506 30.0178C30.1598 29.4566 31.8115 28.8889 33.4627 28.3199C33.6147 28.2675 33.756 28.1839 33.9066 28.0936C34.6277 28.0318 35.3445 27.9911 36.0641 27.9902C35.8767 28.1092 35.6906 28.1999 35.4959 28.2656C32.6752 29.2164 29.8527 30.1619 27.0319 31.1125C24.1421 32.0865 21.2536 33.0645 18.3647 34.0412C15.3681 35.0544 12.3721 36.0696 9.3749 37.081C8.08174 37.5174 6.78431 37.9412 5.49296 38.3828C5.1874 38.4873 4.89849 38.6405 4.60193 38.7713C4.46136 38.617 4.32079 38.4628 4.17139 38.2891Z" fill="#FFFCF2"/>
<path id="Vector_35" d="M4.61182 38.7899C4.89821 38.6405 5.18711 38.4873 5.49267 38.3828C6.78402 37.9412 8.08145 37.5174 9.37461 37.0811C12.3718 36.0696 15.3678 35.0544 18.3644 34.0412C21.2533 33.0645 24.1418 32.0865 27.0317 31.1126C29.8524 30.1619 32.6749 29.2164 35.4956 28.2656C35.6903 28.2 35.8765 28.1092 36.0793 28.0117C36.6523 27.9547 37.2127 27.916 37.802 27.8816C37.7423 27.9573 37.6648 28.0608 37.5636 28.0954C35.9396 28.6505 34.3122 29.1958 32.6862 29.7452C29.6889 30.7581 26.6922 31.7726 23.695 32.7859C22.2749 33.266 20.8541 33.7447 19.434 34.2248C16.4368 35.2382 13.44 36.2523 10.4429 37.2656C9.02267 37.7457 7.60094 38.2214 6.1826 38.707C5.84349 38.8231 5.51512 38.9705 5.17151 39.1239C4.98147 39.0323 4.80173 38.9204 4.61182 38.7899Z" fill="#FFFCF2"/>
<path id="Vector_36" d="M34.1675 15.3939C34.1589 14.4458 34.1668 13.516 34.1549 12.5866C34.152 12.3634 34.2036 12.2354 34.4571 12.2104C34.529 12.2231 34.5845 12.2541 34.6494 12.3261C34.7218 12.413 34.7848 12.459 34.8477 12.5049C35.4213 13.0342 35.9968 13.5615 36.5672 14.0942C36.6944 14.213 36.8038 14.3508 36.9399 14.4893C37.4918 15.2058 38.0404 15.9022 38.553 16.6242C38.8688 17.0691 39.1294 17.5531 39.4318 18.0321C39.8639 18.9781 40.3311 19.8927 40.6793 20.8506C41.0164 21.7782 41.2314 22.7502 41.4979 23.7033C41.5052 23.7298 41.4876 23.7632 41.4663 23.8101C41.1169 23.0473 40.8127 22.2532 40.4411 21.492C39.9945 20.5773 39.4041 19.7513 38.7386 18.9776C37.8104 17.8986 36.771 16.95 35.5681 16.1852C35.3549 16.0496 35.1378 15.9202 34.9118 15.7452C34.804 15.4674 34.5985 15.4936 34.403 15.4956C34.3275 15.4679 34.2521 15.4401 34.1675 15.3939Z" fill="#B0B0B0"/>
<path id="Vector_37" d="M14.5936 29.6861C14.5367 29.7524 14.4601 29.8404 14.3647 29.8729C12.5383 30.4957 10.7092 31.1102 8.88178 31.7299C6.81033 32.4323 4.74002 33.1381 2.64657 33.8454C2.53739 33.4455 2.45108 33.0426 2.3641 32.6399C2.35154 32.5817 2.33576 32.5242 2.34081 32.4415C3.09325 32.1692 3.82628 31.9217 4.55946 31.6746C6.6435 30.9722 8.72807 30.2713 10.8104 29.564C10.9297 29.5235 11.0311 29.4304 11.1408 29.3618C11.8748 29.4464 12.6079 29.5394 13.3431 29.6124C13.7488 29.6528 14.1578 29.6598 14.5936 29.6861Z" fill="#FFFCF2"/>
<path id="Vector_38" d="M44.062 39.9085C44.6037 39.6206 45.1534 39.3397 45.7174 39.0909C46.8977 38.5703 48.0864 38.0686 49.27 37.5555C50.4255 37.0545 51.5786 36.5478 52.7342 36.0471C52.8274 36.0066 52.9321 35.9926 53.0559 35.9668C52.7782 36.7578 52.4754 37.548 52.1751 38.3392C52.1363 38.4414 52.1101 38.5485 52.0506 38.6779C50.6091 39.3255 49.195 39.9485 47.781 40.5715C47.7156 40.5694 47.6502 40.5673 47.5524 40.5492C47.5059 40.5191 47.489 40.5109 47.4692 40.5086C46.8901 40.4027 46.3118 40.2916 45.7315 40.1925C45.181 40.0984 44.6283 40.017 44.062 39.9085Z" fill="#B0B0B0"/>
<path id="Vector_39" d="M23.5839 53.8108C23.2178 53.7458 22.8517 53.6808 22.4966 53.5947C22.5967 53.5523 22.6923 53.5448 22.7741 53.5075C23.835 53.0231 24.8909 52.5279 25.954 52.0486C27.4789 51.3612 29.0101 50.6877 30.5359 50.0023C31.6854 49.486 32.8285 48.9554 33.9784 48.4402C35.8724 47.5916 37.7706 46.7524 39.6651 45.9053C41.2866 45.1802 42.9063 44.4514 44.5232 43.7165C44.6116 43.6763 44.6676 43.565 44.7618 43.4772C45.3088 43.454 45.8327 43.4405 46.3534 43.4487C46.2603 43.5346 46.1779 43.6151 46.0792 43.6602C45.233 44.0467 44.3835 44.4259 43.5358 44.8092C42.4149 45.3161 41.296 45.8275 40.1741 46.3321C38.8074 46.9468 37.4378 47.555 36.0707 48.1688C34.9862 48.6557 33.9045 49.1487 32.8198 49.6352C31.4809 50.2359 30.1405 50.8333 28.8002 51.431C27.8848 51.8393 26.9656 52.2393 26.0535 52.655C25.2265 53.0318 24.4068 53.4249 23.5839 53.8108Z" fill="#B0B0B0"/>
<path id="Vector_40" d="M48.3499 43.8599C48.6217 44.0895 48.5157 44.3405 48.3495 44.6119C47.7572 44.8651 47.2033 45.0914 46.6568 45.3341C45.2684 45.9509 43.8828 46.5742 42.4969 47.1965C41.4313 47.6749 40.3675 48.1572 39.3017 48.6353C37.9344 49.2486 36.5654 49.8579 35.1983 50.4717C34.1138 50.9586 33.0324 51.4522 31.9474 51.938C30.4383 52.6136 28.9263 53.2828 27.4188 53.9622C27.3278 54.0032 27.2662 54.1094 27.1909 54.1853C26.8139 54.1676 26.4368 54.1499 26.0371 54.1066C26.1782 53.9642 26.3286 53.8182 26.5081 53.7356C27.4839 53.2864 28.4674 52.8538 29.4474 52.4135C30.3239 52.0196 31.198 51.6206 32.0753 51.2284C33.584 50.5538 35.0956 49.8855 36.6036 49.2093C37.7256 48.7062 38.8425 48.1918 39.964 47.6877C41.528 46.9847 43.0951 46.2885 44.6593 45.5857C45.7715 45.086 46.8816 44.5819 47.9907 44.0754C48.1169 44.0178 48.2305 43.9324 48.3499 43.8599Z" fill="#B0B0B0"/>
<path id="Vector_41" d="M23.6089 53.8161C24.4068 53.425 25.2265 53.032 26.0536 52.6551C26.9656 52.2395 27.8848 51.8394 28.8003 51.4311C30.1405 50.8334 31.4809 50.236 32.8199 49.6353C33.9045 49.1488 34.9862 48.6558 36.0707 48.1689C37.4378 47.5551 38.8074 46.9469 40.1741 46.3322C41.2961 45.8276 42.415 45.3162 43.5358 44.8093C44.3835 44.426 45.2331 44.0468 46.0792 43.6603C46.1779 43.6152 46.2603 43.5347 46.382 43.449C46.7693 43.4481 47.1249 43.4688 47.4805 43.4894C47.4805 43.4894 47.48 43.4918 47.4759 43.5137C47.3788 43.6098 47.2962 43.7068 47.1912 43.7549C46.1211 44.2456 45.0475 44.729 43.9743 45.2131C42.9105 45.693 41.8469 46.1732 40.7816 46.6499C39.4716 47.2361 38.1588 47.8159 36.8496 48.4037C35.7189 48.9114 34.5927 49.4291 33.4623 49.9375C31.8896 50.6448 30.3153 51.3485 28.7408 52.0517C27.6284 52.5485 26.511 53.0345 25.4038 53.5426C25.1531 53.6577 24.9352 53.8446 24.7022 53.9984C24.3461 53.9394 23.99 53.8804 23.6089 53.8161Z" fill="#B0B0B0"/>
<path id="Vector_42" d="M44.7387 43.4868C44.6676 43.565 44.6115 43.6763 44.5231 43.7164C42.9062 44.4513 41.2865 45.1802 39.6651 45.9052C37.7705 46.7524 35.8723 47.5915 33.9784 48.4401C32.8284 48.9554 31.6853 49.486 30.5359 50.0023C29.01 50.6877 27.4788 51.3611 25.9539 52.0486C24.8908 52.5279 23.8349 53.0231 22.7741 53.5074C22.6922 53.5448 22.5967 53.5522 22.4827 53.5742C22.2479 53.5325 22.0378 53.49 21.8032 53.4425C21.986 53.3068 22.1814 53.1504 22.4023 53.0497C23.7936 52.4159 25.1902 51.7938 26.5857 51.1693C28.3394 50.3844 30.0947 49.6029 31.8475 48.816C33.1672 48.2236 34.4829 47.6223 35.8024 47.0296C37.3383 46.3398 38.8768 45.6558 40.4135 44.9677C41.0736 44.6721 41.7337 44.3763 42.3892 44.0708C42.48 44.0285 42.5443 43.9293 42.6454 43.8283C43.3595 43.6957 44.0491 43.5913 44.7387 43.4868Z" fill="#B0B0B0"/>
<path id="Vector_43" d="M44.7617 43.4772C44.049 43.5913 43.3594 43.6958 42.6455 43.8057C40.2814 44.3678 38.044 45.2186 35.8403 46.1668C35.6316 46.2565 35.4179 46.3348 35.1686 46.4035C34.9717 46.4094 34.8055 46.407 34.6549 46.4543C32.2511 47.2078 29.8491 47.9675 27.4469 48.7262C26.3345 49.0776 25.2221 49.4292 24.1101 49.7819C22.6731 50.2377 21.2356 50.6921 19.8017 51.1576C19.719 51.1844 19.667 51.3059 19.6007 51.3834C19.1009 51.3668 18.6011 51.3502 18.0732 51.3317C18.1672 51.2511 18.2792 51.1409 18.4128 51.0983C20.7833 50.3433 23.1566 49.5976 25.5286 48.8476C28.1075 48.0321 30.6856 47.2139 33.2641 46.3972C35.2717 45.7614 37.2791 45.1252 39.2871 44.4907C40.8028 44.0118 42.3197 43.5362 43.8351 43.0564C43.9822 43.0098 44.1231 42.9435 44.2878 42.8772C44.9843 42.9796 45.6609 43.0846 46.3347 43.2054C46.7103 43.2727 47.0812 43.3664 47.4673 43.4687C47.1248 43.4687 46.7692 43.448 46.385 43.4271C45.8326 43.4405 45.3087 43.454 44.7617 43.4772Z" fill="#FFFCF2"/>
<path id="Vector_44" d="M13.1313 49.4895C14.4798 49.034 15.8363 48.5957 17.1947 48.1631C19.4393 47.4481 21.6848 46.7357 23.9305 46.0243C25.8805 45.4066 27.831 44.7903 29.782 44.176C31.0824 43.7665 32.385 43.3637 33.6845 42.9515C33.8465 42.9001 33.996 42.8097 34.1555 42.716C34.4796 42.6498 34.7982 42.5891 35.1197 42.5637C35.5679 42.5284 36.0182 42.5195 36.4917 42.5249C36.3904 42.6143 36.271 42.697 36.1387 42.739C34.7503 43.1792 33.3591 43.6108 31.9701 44.0489C29.9502 44.686 27.9315 45.3271 25.9121 45.9655C23.932 46.5914 21.9509 47.2142 19.9714 47.8418C17.8742 48.5067 15.7783 49.1756 13.6818 49.8427C13.5013 49.7315 13.3208 49.6204 13.1313 49.4895Z" fill="#FFFCF2"/>
<path id="Vector_45" d="M47.7318 45.3003C47.648 45.4317 47.578 45.5751 47.4771 45.6918C47.3239 45.8689 47.1493 46.0274 46.9629 46.2208C46.9282 46.2612 46.9199 46.2775 46.9172 46.2967C46.9172 46.2967 46.9155 46.2934 46.9026 46.3004C46.8781 46.3246 46.8665 46.3418 46.8549 46.359C46.8549 46.359 46.8532 46.3557 46.8298 46.356C46.7266 46.3731 46.6409 46.3764 46.5679 46.4087C45.2266 47.0031 43.8855 47.5979 42.5472 48.199C41.4065 48.7114 40.2713 49.2361 39.1303 49.7478C37.4147 50.5173 35.6947 51.277 33.9793 52.047C32.5839 52.6734 31.1916 53.3065 29.8017 53.9449C29.7035 53.99 29.6366 54.1035 29.5551 54.1852C29.0559 54.1882 28.5568 54.1912 28.0327 54.169C28.0729 54.0963 28.1321 54.0365 28.2037 54.0034C28.9544 53.6561 29.7052 53.3089 30.4596 52.97C32.0055 52.2754 33.5543 51.5875 35.1006 50.8939C36.1852 50.4074 37.2665 49.9136 38.3512 49.4275C39.8788 48.743 41.4096 48.0653 42.9367 47.3794C44.2662 46.7823 45.5906 46.174 46.9216 45.5802C47.1816 45.4642 47.4612 45.3925 47.7318 45.3003Z" fill="#B0B0B0"/>
<path id="Vector_46" d="M13.6909 49.8624C15.7783 49.1756 17.8742 48.5067 19.9714 47.8418C21.9509 47.2143 23.932 46.5915 25.9121 45.9656C27.9315 45.3272 29.9502 44.6861 31.9701 44.049C33.3591 43.6108 34.7503 43.1792 36.1387 42.739C36.271 42.697 36.3904 42.6144 36.5201 42.5293C37.0858 42.4844 37.6473 42.4608 38.2376 42.4414C38.181 42.5079 38.1043 42.5979 38.0087 42.6284C36.031 43.2595 34.0506 43.8826 32.0717 44.5102C30.9785 44.8569 29.8878 45.2111 28.7946 45.5578C25.959 46.4571 23.1228 47.3543 20.2867 48.2521C18.7014 48.754 17.1153 49.2537 15.5308 49.7582C15.1087 49.8926 14.6911 50.041 14.2587 50.2016C14.0639 50.1075 13.882 49.9948 13.6909 49.8624Z" fill="#FFFCF2"/>
<path id="Vector_47" d="M29.5825 54.1896C29.6368 54.1034 29.7037 53.9899 29.8019 53.9448C31.1918 53.3064 32.5841 52.6733 33.9795 52.0469C35.6949 51.2769 37.4149 50.5172 39.1305 49.7477C40.2715 49.236 41.4067 48.7113 42.5474 48.1989C43.8857 47.5978 45.2268 47.003 46.5681 46.4087C46.6411 46.3763 46.7269 46.373 46.8316 46.3569C46.3745 46.7922 45.8924 47.2266 45.3631 47.6623C45.1584 47.7074 44.9924 47.7324 44.8447 47.7984C43.9212 48.2111 43.0036 48.637 42.0807 49.0508C40.1411 49.9204 38.1979 50.7819 36.2591 51.6531C34.6681 52.3681 33.0807 53.091 31.4945 53.8164C31.4162 53.8522 31.3647 53.9466 31.3007 54.0138C31.3007 54.0138 31.2985 54.0095 31.2872 54.0143C31.2582 54.0277 31.2452 54.0409 31.2367 54.0586C30.6944 54.1037 30.1521 54.1489 29.5825 54.1896Z" fill="#B0B0B0"/>
<path id="Vector_48" d="M11.1264 29.3405C11.0307 29.4304 10.9292 29.5235 10.81 29.564C8.72762 30.2714 6.64305 30.9722 4.55901 31.6746C3.82584 31.9217 3.0928 32.1692 2.33603 32.417C2.26696 32.022 2.22157 31.6265 2.19873 31.2026C2.29192 31.1625 2.36571 31.1602 2.43274 31.1377C4.43534 30.4657 6.4377 29.793 8.43773 29.1134C8.52054 29.0853 8.58049 28.9898 8.65109 28.9258C9.20978 29.0216 9.76801 29.1202 10.3274 29.2119C10.588 29.2546 10.8507 29.2839 11.1264 29.3405Z" fill="#FFFCF2"/>
<path id="Vector_49" d="M10.9526 47.8091C12.4177 47.3223 13.891 46.8532 15.3656 46.3885C17.1448 45.8278 18.9254 45.2721 20.704 44.7096C20.8164 44.674 20.9163 44.5989 21.0263 44.5207C21.5042 44.4543 21.9784 44.4146 22.4513 44.3631C23.1638 44.2855 23.8753 44.1997 24.6092 44.1428C24.469 44.2513 24.3147 44.359 24.1434 44.4133C21.9882 45.096 19.8303 45.7701 17.6736 46.448C15.7729 47.0455 13.8723 47.6438 11.9734 48.2468C11.8728 48.2788 11.7874 48.3585 11.695 48.4159C11.4504 48.2202 11.2059 48.0245 10.9526 47.8091Z" fill="#FFFCF2"/>
<path id="Vector_50" d="M24.7285 54.0029C24.9351 53.8445 25.153 53.6577 25.4038 53.5426C26.511 53.0345 27.6283 52.5485 28.7407 52.0516C30.3153 51.3484 31.8896 50.6447 33.4623 49.9375C34.5927 49.4291 35.7188 48.9113 36.8495 48.4037C38.1588 47.8158 39.4716 47.236 40.7816 46.6499C41.8468 46.1732 42.9105 45.693 43.9743 45.2131C45.0475 44.729 46.121 44.2456 47.1912 43.7549C47.2961 43.7068 47.3787 43.6098 47.4746 43.5134C47.6578 43.5382 47.838 43.585 48.0191 43.6725C47.9485 43.7711 47.8855 43.8471 47.8046 43.8839C46.7798 44.3496 45.7531 44.8112 44.7254 45.2708C43.1983 45.9536 41.6687 46.631 40.1428 47.3164C38.9932 47.8328 37.8489 48.3609 36.7 48.8787C35.316 49.5024 33.9291 50.1197 32.5443 50.7417C31.6586 51.1395 30.776 51.5443 29.8893 51.9399C28.4467 52.5835 27.0011 53.2206 25.5598 53.8671C25.4876 53.8995 25.4437 53.9947 25.3866 54.0606C25.176 54.0429 24.9655 54.0252 24.7285 54.0029Z" fill="#B0B0B0"/>
<path id="Vector_51" d="M11.7046 48.4349C11.7877 48.3585 11.8731 48.2788 11.9736 48.2469C13.8726 47.6438 15.7731 47.0455 17.6739 46.4481C19.8306 45.7702 21.9885 45.096 24.1437 44.4133C24.3149 44.3591 24.4692 44.2513 24.6356 44.1471C25.8257 43.9364 27.0117 43.7468 28.2232 43.5615C28.1535 43.6313 28.067 43.724 27.9616 43.7583C26.4001 44.2654 24.8372 44.7682 23.2724 45.2653C20.8421 46.0374 18.41 46.8036 15.9791 47.5738C14.7295 47.9698 13.4808 48.3691 12.2102 48.7761C12.0305 48.6748 11.8722 48.5643 11.7046 48.4349Z" fill="#FFFCF2"/>
<path id="Vector_52" d="M47.7506 45.2919C47.4611 45.3925 47.1815 45.4643 46.9215 45.5802C45.5905 46.174 44.2661 46.7823 42.9366 47.3795C41.4095 48.0653 39.8787 48.743 38.3511 49.4276C37.2663 49.9137 36.1851 50.4075 35.1005 50.8939C33.5542 51.5875 32.0054 52.2754 30.4595 52.97C29.705 53.3089 28.9543 53.6562 28.2036 54.0034C28.132 54.0365 28.0727 54.0963 28.0037 54.1645C27.7491 54.1883 27.4984 54.1912 27.2192 54.1897C27.266 54.1094 27.3276 54.0031 27.4186 53.9621C28.9261 53.2828 30.4381 52.6136 31.9472 51.938C33.0322 51.4522 34.1136 50.9585 35.1981 50.4717C36.5652 49.8579 37.9342 49.2486 39.3015 48.6353C40.3673 48.1572 41.4311 47.6749 42.4967 47.1964C43.8826 46.5741 45.2681 45.9508 46.6566 45.3341C47.2031 45.0913 47.757 44.8651 48.3295 44.623C48.1575 44.8377 47.9635 45.0606 47.7506 45.2919Z" fill="#B0B0B0"/>
<path id="Vector_53" d="M25.4121 54.0652C25.4434 53.9946 25.4874 53.8994 25.5595 53.8671C27.0009 53.2206 28.4464 52.5834 29.889 51.9398C30.7757 51.5442 31.6583 51.1394 32.544 50.7416C33.9288 50.1196 35.3157 49.5023 36.6997 48.8786C37.8486 48.3609 38.9929 47.8327 40.1425 47.3163C41.6685 46.6309 43.1981 45.9536 44.7252 45.2707C45.7528 44.8112 46.7795 44.3495 47.8044 43.8838C47.8852 43.8471 47.9482 43.771 48.029 43.6934C48.1407 43.7202 48.2429 43.7669 48.3475 43.8366C48.2304 43.9323 48.1168 44.0177 47.9906 44.0753C46.8815 44.5818 45.7713 45.0859 44.6592 45.5856C43.095 46.2883 41.5279 46.9846 39.9639 47.6876C38.8424 48.1917 37.7255 48.706 36.6035 49.2091C35.0955 49.8854 33.5839 50.5537 32.0752 51.2283C31.1979 51.6205 30.3238 52.0195 29.4473 52.4134C28.4673 52.8537 27.4838 53.2862 26.508 53.7354C26.3285 53.8181 26.1781 53.9641 26.0115 54.102C25.8184 54.1054 25.6281 54.0876 25.4121 54.0652Z" fill="#B0B0B0"/>
<path id="Vector_54" d="M8.63829 28.9049C8.58088 28.9899 8.52093 29.0853 8.43812 29.1135C6.43809 29.793 4.43573 30.4657 2.43314 31.1378C2.36611 31.1602 2.29231 31.1626 2.19602 31.175C2.13183 30.8407 2.09327 30.5058 2.08447 30.1431C2.2148 30.0984 2.31953 30.0939 2.41533 30.0623C3.67805 29.6459 4.94118 29.2306 6.19961 28.8016C6.40613 28.7311 6.59056 28.596 6.7852 28.4907C7.291 28.6006 7.79672 28.7109 8.30266 28.8202C8.40974 28.8433 8.5176 28.8628 8.63829 28.9049Z" fill="#FFFCF2"/>
<path id="Vector_55" d="M43.4995 49.2202C42.8993 49.6333 42.3177 50.0769 41.6955 50.4536C39.8481 51.5719 37.8957 52.4659 35.8212 53.0784C35.1433 53.2785 34.4563 53.4481 33.7529 53.6074C33.8222 53.5179 33.9039 53.4345 34.003 53.3902C35.1727 52.8676 36.3474 52.3562 37.5161 51.8314C39.2699 51.0439 41.0186 50.2452 42.773 49.4592C43.0044 49.3555 43.2568 49.2987 43.4995 49.2202Z" fill="#B0B0B0"/>
<path id="Vector_56" d="M43.5144 49.2178C43.2571 49.2986 43.0047 49.3553 42.7733 49.459C41.0189 50.245 39.2702 51.0437 37.5164 51.8312C36.3477 52.356 35.173 52.8675 34.0033 53.3901C33.9041 53.4343 33.8225 53.5177 33.7287 53.6037C33.6797 53.6281 33.6349 53.6318 33.5535 53.6407C33.499 53.6548 33.4857 53.6684 33.4771 53.6866C33.0809 53.7528 32.6847 53.8189 32.2637 53.8649C32.4063 53.7525 32.5684 53.6488 32.7418 53.5697C34.3031 52.8582 35.865 52.1481 37.4293 51.4432C39.4549 50.5304 41.4818 49.6203 43.5106 48.7146C43.9521 48.5175 44.4041 48.344 44.8512 48.1597C44.455 48.4864 44.0588 48.8131 43.6296 49.1528C43.5788 49.1748 43.5656 49.1884 43.557 49.2065C43.557 49.2065 43.529 49.2155 43.5144 49.2178Z" fill="#B0B0B0"/>
<path id="Vector_57" d="M44.8608 48.1403C44.4038 48.344 43.9518 48.5175 43.5104 48.7146C41.4815 49.6203 39.4546 50.5303 37.429 51.4432C35.8648 52.1481 34.3028 52.8582 32.7416 53.5697C32.5682 53.6488 32.406 53.7524 32.2366 53.8668C32.2346 53.8889 32.2332 53.8861 32.2212 53.8904C32.1916 53.9035 32.1786 53.9167 32.1703 53.9344C31.8988 53.9595 31.6273 53.9845 31.3281 54.0116C31.3645 53.9466 31.416 53.8522 31.4943 53.8164C33.0805 53.0909 34.6679 52.368 36.2589 51.6531C38.1978 50.7818 40.1409 49.9203 42.0805 49.0507C43.0035 48.6369 43.921 48.211 44.8445 47.7984C44.9922 47.7324 45.1582 47.7073 45.3412 47.6641C45.2012 47.8169 45.036 47.9689 44.8608 48.1403Z" fill="#B0B0B0"/>
<path id="Vector_58" d="M47.7944 40.5922C49.1955 39.9485 50.6095 39.3255 52.046 38.7019C51.752 39.3228 51.4542 39.9547 51.114 40.5629C50.7792 41.1612 50.2684 41.22 49.6294 41.0752C49.0185 40.9367 48.4145 40.7682 47.7944 40.5922Z" fill="#B0B0B0"/>
<path id="Vector_59" d="M6.77223 28.4699C6.59021 28.596 6.40578 28.7312 6.19926 28.8016C4.94083 29.2307 3.6777 29.646 2.41498 30.0624C2.31919 30.094 2.21446 30.0985 2.08866 30.1155C2.03967 29.8231 2.0159 29.5308 2.01938 29.2072C2.95238 28.8723 3.85911 28.5715 4.76285 28.2619C4.90456 28.2134 5.03271 28.1252 5.16713 28.0554C5.62046 28.1698 6.0737 28.2846 6.5272 28.3983C6.60409 28.4176 6.68211 28.4323 6.77223 28.4699Z" fill="#FFFCF2"/>
<path id="Vector_60" d="M5.15546 28.0351C5.03275 28.1253 4.9046 28.2134 4.76289 28.262C3.85915 28.5715 2.95241 28.8723 2.02401 29.179C1.99789 28.7696 1.99664 28.3572 1.99043 27.9449C1.98009 27.2582 2.38556 27.1514 2.87853 27.3005C3.63631 27.5296 4.38894 27.7758 5.15546 28.0351Z" fill="#FFFCF2"/>
<path id="Vector_61" d="M16.6216 41.6531C17.2111 41.6294 17.8162 41.628 18.4505 41.6262C18.8978 41.6265 19.3161 41.6271 19.7639 41.629C19.7501 41.6494 19.7067 41.6854 19.6634 41.6854C18.6546 41.6844 17.6459 41.6795 16.6216 41.6531Z" fill="#1583BE"/>
<path id="Vector_62" d="M37.5498 39.5673C37.6907 39.5456 37.8603 39.5141 38.03 39.5139C38.6135 39.5134 39.197 39.5237 39.8005 39.5459C39.0732 39.5653 38.3259 39.5686 37.5498 39.5673Z" fill="#1E92CB"/>
<path id="Vector_63" d="M34.4131 15.5154C34.5983 15.4937 34.8039 15.4676 34.9027 15.7257C34.744 15.6776 34.5837 15.6063 34.4131 15.5154Z" fill="#F08800"/>
<path id="Vector_64" d="M23.9199 41.3082C24.0039 41.2871 24.1129 41.2705 24.2468 41.2546C24.1628 41.2744 24.0539 41.2935 23.9199 41.3082Z" fill="#0C75B1"/>
<path id="Vector_65" d="M24.479 41.245C24.544 41.2242 24.6328 41.2079 24.7456 41.1924C24.6806 41.2119 24.5918 41.2307 24.479 41.245Z" fill="#0C75B1"/>
<path id="Vector_66" d="M28.4788 43.4995C28.4616 43.5286 28.4255 43.5536 28.3799 43.5637C28.4002 43.531 28.43 43.5132 28.4788 43.4995Z" fill="#087DC3"/>
<path id="Vector_67" d="M54.0309 31.8516C54.0171 31.7904 54.0231 31.7172 54.0439 31.6277C54.056 31.6875 54.0534 31.7636 54.0309 31.8516Z" fill="#1583BE"/>
<path id="Vector_68" d="M29.3296 40.4359C29.3578 40.4153 29.4072 40.3993 29.477 40.3843C29.4486 40.4036 29.3996 40.4221 29.3296 40.4359Z" fill="#0F7AB5"/>
<path id="Vector_69" d="M2.71595 21.8452C2.72904 21.8896 2.72235 21.9439 2.70118 22.0132C2.68985 21.9704 2.69301 21.9128 2.71595 21.8452Z" fill="#FECF00"/>
<path id="Vector_70" d="M53.0963 35.9607C53.0857 35.9346 53.0925 35.9002 53.1127 35.8538C53.1219 35.8787 53.1178 35.9155 53.0963 35.9607Z" fill="#1E92CB"/>
<path id="Vector_71" d="M46.9324 46.2917C46.9201 46.2774 46.9284 46.2611 46.9539 46.24C46.9594 46.2505 46.9534 46.2687 46.9324 46.2917Z" fill="#1E92CB"/>
<path id="Vector_72" d="M46.8704 46.3538C46.8665 46.3417 46.8781 46.3245 46.9043 46.301C46.9079 46.3128 46.8969 46.3308 46.8704 46.3538Z" fill="#1E92CB"/>
<path id="Vector_73" d="M47.4751 40.5237C47.4891 40.511 47.5061 40.5192 47.5284 40.545C47.5181 40.5507 47.4995 40.5446 47.4751 40.5237Z" fill="#219BD8"/>
<path id="Vector_74" d="M43.5728 49.2077C43.5654 49.1884 43.5786 49.1748 43.6103 49.1616C43.6123 49.1746 43.6006 49.1918 43.5728 49.2077Z" fill="#25A0DB"/>
<path id="Vector_75" d="M33.4927 53.6878C33.4853 53.6684 33.4987 53.6548 33.5306 53.6418C33.5326 53.6549 33.5207 53.672 33.4927 53.6878Z" fill="#25A0DB"/>
<path id="Vector_76" d="M32.1861 53.936C32.1787 53.9168 32.1917 53.9035 32.2228 53.8909C32.2248 53.9038 32.2133 53.9207 32.1861 53.936Z" fill="#219BD8"/>
<path id="Vector_77" d="M31.2525 54.0603C31.2452 54.0409 31.2582 54.0277 31.2894 54.0151C31.2914 54.0282 31.2798 54.0451 31.2525 54.0603Z" fill="#1F98D6"/>
<path id="Vector_78" d="M20.7374 16.1682C20.7299 16.1484 20.7431 16.1349 20.7749 16.1218C20.777 16.1351 20.7653 16.1525 20.7374 16.1682Z" fill="#F39700"/>
<path id="Vector_79" d="M34.8389 12.4878C34.7847 12.459 34.7218 12.4131 34.6582 12.344C34.7151 12.3708 34.7726 12.4207 34.8389 12.4878Z" fill="#F08800"/>
<path id="Vector_80" d="M19.6294 51.3868C19.6668 51.306 19.7188 51.1845 19.8015 51.1576C21.2354 50.6921 22.6729 50.2377 24.1099 49.782C25.2219 49.4293 26.3343 49.0777 27.4467 48.7263C29.8489 47.9676 32.2509 47.2079 34.6547 46.4543C34.8054 46.4071 34.9715 46.4094 35.1457 46.4075C34.0452 46.96 32.9234 47.4814 31.8151 48.0301C29.503 49.1747 27.1284 50.1566 24.6041 50.7199C23.5219 50.9614 22.4174 51.1092 21.3184 51.2672C20.7705 51.3459 20.212 51.3515 19.6294 51.3868Z" fill="#FFFCF2"/>
</g>
</svg>
