<svg width="40" height="40" viewBox="0 0 40 40" fill="none" xmlns="http://www.w3.org/2000/svg">
<g id="mdi:clock">
<path id="Vector" d="M20.0002 3.33325C17.8115 3.33325 15.6442 3.76435 13.6221 4.60193C11.6 5.4395 9.76269 6.66716 8.21505 8.21481C5.08944 11.3404 3.3335 15.5796 3.3335 19.9999C3.3335 24.4202 5.08944 28.6594 8.21505 31.785C9.76269 33.3327 11.6 34.5603 13.6221 35.3979C15.6442 36.2355 17.8115 36.6666 20.0002 36.6666C24.4204 36.6666 28.6597 34.9106 31.7853 31.785C34.9109 28.6594 36.6668 24.4202 36.6668 19.9999C36.6668 17.8112 36.2357 15.644 35.3982 13.6219C34.5606 11.5998 33.3329 9.76245 31.7853 8.21481C30.2376 6.66716 28.4003 5.4395 26.3782 4.60193C24.3561 3.76435 22.1889 3.33325 20.0002 3.33325ZM27.0002 26.9999L18.3335 21.6666V11.6666H20.8335V20.3333L28.3335 24.8333L27.0002 26.9999Z" fill="#FFFCF2"/>
</g>
</svg>
