<svg width="56" height="56" viewBox="0 0 56 56" fill="none" xmlns="http://www.w3.org/2000/svg">
<g id="pepicons-pencil:fire">
<g id="Group">
<path id="Vector" fill-rule="evenodd" clip-rule="evenodd" d="M36.6519 39.267C36.779 36.8466 36.2222 34.4392 35.0451 32.3204C33.8681 30.2015 32.1184 28.4568 29.9963 27.2858C29.6194 27.0678 29.1725 27.0046 28.75 27.1096C28.3274 27.2146 27.9621 27.4796 27.7311 27.8486L25.0319 32.169L22.7863 29.453C22.6629 29.3042 22.51 29.1824 22.3373 29.0956C22.1645 29.0087 21.9757 28.9586 21.7826 28.9483C21.5895 28.9381 21.3964 28.9679 21.2154 29.036C21.0344 29.104 20.8695 29.2089 20.7311 29.3438C19.4077 30.6219 18.3741 32.1692 17.7002 33.8812C17.0264 35.5931 16.7279 37.4298 16.8251 39.267C16.8251 41.8959 17.8694 44.417 19.7282 46.2759C21.5871 48.1347 24.1082 49.179 26.7371 49.179C29.3659 49.179 31.887 48.1347 33.7459 46.2759C35.6048 44.417 36.6491 41.8959 36.6491 39.267H36.6519ZM21.6635 32.491C21.6045 32.5667 21.5466 32.6433 21.4899 32.7206C20.1729 34.5599 19.5131 36.7888 19.6167 39.0486C19.6221 39.1035 19.6249 39.1587 19.6251 39.2138C19.6251 41.1001 20.3744 42.909 21.7081 44.2428C23.0419 45.5765 24.8508 46.3258 26.7371 46.3258C28.6233 46.3258 30.4322 45.5765 31.766 44.2428C33.0998 42.909 33.8491 41.1001 33.8491 39.2138L33.8575 39.0514C33.8771 38.8694 34.3139 33.863 29.7331 30.4582C29.658 30.4024 29.5824 30.3473 29.5063 30.293L26.5831 34.969C26.4419 35.1946 26.2492 35.3833 26.0208 35.5198C25.7925 35.6563 25.535 35.7366 25.2695 35.7541C25.004 35.7716 24.7382 35.7258 24.4939 35.6204C24.2496 35.5151 24.0338 35.3533 23.8643 35.1482L21.6635 32.4882V32.491Z" fill="#FFFCF2"/>
<path id="Vector_2" fill-rule="evenodd" clip-rule="evenodd" d="M25.1271 5.85192C25.1854 5.5513 25.3249 5.27238 25.5305 5.04542C25.7361 4.81845 25.9999 4.6521 26.2933 4.5644C26.5867 4.4767 26.8985 4.47099 27.1949 4.54791C27.4913 4.62482 27.761 4.78142 27.9747 5.00072C28.5179 5.55512 29.5623 6.65272 30.6235 7.91832C31.6651 9.15872 32.8019 10.6511 33.4571 11.9811C34.0955 13.2803 34.7731 14.9603 35.3079 16.3631L37.7971 12.2191C37.9359 11.9877 38.1284 11.7931 38.3584 11.6518C38.5883 11.5105 38.8489 11.4267 39.1181 11.4075C39.3873 11.3883 39.6572 11.4342 39.9049 11.5413C40.1526 11.6485 40.3708 11.8138 40.5411 12.0231C44.0775 16.3911 45.8387 21.0699 46.7151 24.6427C47.1547 26.4319 47.3759 27.9523 47.4879 29.0331C47.5442 29.573 47.5816 30.1146 47.5999 30.6571V30.7999C47.5999 41.7115 38.9451 50.5959 27.9943 50.5959C17.0463 50.5959 8.3999 41.7143 8.3999 30.7999C8.3999 27.7955 9.8195 20.7199 14.0195 14.9183C14.1822 14.6941 14.398 14.5137 14.6474 14.3932C14.8969 14.2728 15.1723 14.2159 15.449 14.2279C15.7258 14.2398 15.9953 14.3201 16.2335 14.4616C16.4717 14.6031 16.6711 14.8014 16.8139 15.0387L19.6559 19.7679C20.5183 18.4183 21.6719 16.5227 22.5483 14.7727C23.8083 12.2527 24.8079 7.50112 25.1271 5.85472V5.85192ZM27.4315 8.51192C26.9247 10.7519 26.0875 13.9495 25.0515 16.0271C23.6739 18.7795 21.6887 21.8035 21.0055 22.8199C20.8479 23.0538 20.6339 23.2441 20.3832 23.3733C20.1326 23.5025 19.8534 23.5665 19.5715 23.5592C19.2896 23.5519 19.0141 23.4737 18.7705 23.3318C18.5268 23.1898 18.3229 22.9888 18.1775 22.7471L15.3215 17.9955C12.2527 22.9599 11.1999 28.5403 11.1999 30.7999C11.1999 40.2023 18.6311 47.7903 27.9943 47.7903C37.3603 47.7903 44.7999 40.2023 44.7999 30.7999V30.7215C44.7838 30.253 44.7521 29.7851 44.7047 29.3187C44.5606 27.9685 44.324 26.6297 43.9963 25.3119C43.1091 21.637 41.5318 18.1641 39.3483 15.0779L36.5091 19.8043C36.3448 20.0773 36.1063 20.2981 35.8215 20.4409C35.5366 20.5837 35.2171 20.6427 34.9 20.611C34.5829 20.5793 34.2814 20.4583 34.0304 20.262C33.7794 20.0656 33.5894 19.802 33.4823 19.5019C33.0287 18.2307 31.9171 15.1955 30.9427 13.2187C30.4471 12.2079 29.4979 10.9311 28.4787 9.71872C28.1365 9.31146 27.7874 8.90727 27.4315 8.51192Z" fill="#FFFCF2"/>
</g>
</g>
</svg>
