<svg width="40" height="40" viewBox="0 0 40 40" fill="none" xmlns="http://www.w3.org/2000/svg">
<g id="ic:baseline-place">
<path id="Vector" d="M20.0002 3.33325C13.5502 3.33325 8.3335 8.54992 8.3335 14.9999C8.3335 23.7499 20.0002 36.6666 20.0002 36.6666C20.0002 36.6666 31.6668 23.7499 31.6668 14.9999C31.6668 8.54992 26.4502 3.33325 20.0002 3.33325ZM20.0002 19.1666C18.8951 19.1666 17.8353 18.7276 17.0539 17.9462C16.2725 17.1648 15.8335 16.105 15.8335 14.9999C15.8335 13.8949 16.2725 12.835 17.0539 12.0536C17.8353 11.2722 18.8951 10.8333 20.0002 10.8333C21.1052 10.8333 22.165 11.2722 22.9464 12.0536C23.7278 12.835 24.1668 13.8949 24.1668 14.9999C24.1668 16.105 23.7278 17.1648 22.9464 17.9462C22.165 18.7276 21.1052 19.1666 20.0002 19.1666Z" fill="#FFFCF2"/>
</g>
</svg>
