<svg width="54" height="74" viewBox="0 0 54 74" fill="none" xmlns="http://www.w3.org/2000/svg">
<path d="M4.50021 38.2501L7.31271 39.7699C9.11271 40.7431 11.1377 40.7431 12.9377 39.7699C14.7377 38.7979 16.7627 38.7979 18.5627 39.7699C20.3627 40.7431 22.3877 40.7431 24.1877 39.7699C25.9877 38.7979 28.0127 38.7979 29.8127 39.7699C31.6127 40.7431 33.6377 40.7431 35.4377 39.7699C37.2377 38.7979 39.2627 38.7979 41.0627 39.7699C42.8627 40.7431 44.8877 40.7431 46.6877 39.7699L49.5002 38.2501M4.50021 45.0001L7.31271 46.5199C9.11271 47.4931 11.1377 47.4931 12.9377 46.5199C14.7377 45.5479 16.7627 45.5479 18.5627 46.5199C20.3627 47.4931 22.3877 47.4931 24.1877 46.5199C25.9877 45.5479 28.0127 45.5479 29.8127 46.5199C31.6127 47.4931 33.6377 47.4931 35.4377 46.5199C37.2377 45.5479 39.2627 45.5479 41.0627 46.5199C42.8627 47.4931 44.8877 47.4931 46.6877 46.5199L49.5002 45.0001M49.0367 31.5001C49.9255 27.1924 49.5542 22.5698 47.698 18.2172C42.8503 6.7793 29.6361 1.43668 18.2095 6.29555C8.20146 10.5469 2.86896 21.1861 4.93896 31.4326" stroke="#FFD842" stroke-width="4" stroke-miterlimit="2" stroke-linecap="round" stroke-linejoin="round"/>
<path d="M18.0003 6.75C16.2791 14.8162 20.0141 22.6237 27.0003 27M27.0003 27C26.9441 28.5412 26.7078 30.0487 26.3141 31.5M27.0003 27C34.2791 23.13 43.3691 23.7262 49.5003 29.25" stroke="#FFD842" stroke-width="4" stroke-miterlimit="2" stroke-linecap="round" stroke-linejoin="round"/>
<path d="M20.25 18.0003C20.25 18.0003 32.13 8.44903 46.125 15.7503M14.625 31.5003C11.2612 27.8215 8.1675 22.8265 7.875 15.7503M38.5988 24.8515C38.5988 24.8515 38.8463 27.664 38.1713 31.5453" stroke="#FFD842" stroke-width="4" stroke-miterlimit="2" stroke-linecap="round" stroke-linejoin="round"/>
<path d="M15.8716 63.0469H14.8286L12.5727 56.6602L10.3227 63.0469H9.27391L5.92234 54.6152H7.18211L9.77781 61.3184L12.0454 54.6152H13.1001L15.3735 61.3184L17.9692 54.6152H19.2231L15.8716 63.0469ZM23.3303 63.1348C22.7873 63.1348 22.2913 63.002 21.842 62.7363C21.3928 62.4707 21.0334 62.1133 20.7639 61.6641C20.4983 61.2148 20.3655 60.7168 20.3655 60.1699C20.3655 59.623 20.4983 59.127 20.7639 58.6816C21.0334 58.2324 21.3928 57.875 21.842 57.6094C22.2913 57.3398 22.7873 57.2051 23.3303 57.2051C23.7639 57.2051 24.178 57.2969 24.5725 57.4805C24.9709 57.6641 25.3108 57.9219 25.592 58.2539C25.8225 58.5312 25.9944 58.8301 26.1077 59.1504C26.2209 59.4707 26.2913 59.8027 26.3186 60.1465L26.5823 63.0527H25.4338L25.3987 62.4609L25.4045 62.4492C25.4045 62.4453 25.4006 62.4434 25.3928 62.4434C25.3498 62.4434 25.1291 62.5586 24.7307 62.7891C24.3323 63.0195 23.8655 63.1348 23.3303 63.1348ZM23.3303 61.998C23.6663 61.998 23.9729 61.916 24.2502 61.752C24.5276 61.584 24.7483 61.3633 24.9123 61.0898C25.0764 60.8125 25.1584 60.5059 25.1584 60.1699C25.1584 59.834 25.0764 59.5293 24.9123 59.2559C24.7483 58.9785 24.5276 58.7578 24.2502 58.5938C23.9729 58.4297 23.6663 58.3477 23.3303 58.3477C22.9944 58.3477 22.6877 58.4297 22.4104 58.5938C22.137 58.7578 21.9182 58.9785 21.7541 59.2559C21.5901 59.5293 21.508 59.834 21.508 60.1699C21.508 60.5059 21.5901 60.8125 21.7541 61.0898C21.9182 61.3633 22.137 61.584 22.4104 61.752C22.6877 61.916 22.9944 61.998 23.3303 61.998ZM31.3047 63.0469C30.8555 63.0469 30.4375 62.9531 30.0508 62.7656C29.668 62.5742 29.3418 62.3164 29.0723 61.9922C28.6387 61.4648 28.4219 60.8555 28.4219 60.1641V58.5117H27.3672V57.3691H28.4219V54.5859H29.5645V57.3691H32.5234V58.5117H29.5645V60.1641C29.5645 60.4844 29.6426 60.7773 29.7988 61.043C29.9551 61.3047 30.1641 61.5137 30.4258 61.6699C30.6914 61.8262 30.9844 61.9043 31.3047 61.9043C31.5547 61.9043 31.7871 61.8555 32.002 61.7578C32.2207 61.6602 32.4746 61.459 32.7637 61.1543L33.5723 61.9629C33.1855 62.3691 32.8125 62.6523 32.4531 62.8125C32.0977 62.9688 31.7148 63.0469 31.3047 63.0469ZM37.3162 63.1348C36.7693 63.1348 36.2712 63.002 35.822 62.7363C35.3728 62.4707 35.0134 62.1133 34.7439 61.6641C34.4783 61.2109 34.3455 60.7148 34.3455 60.1758C34.3455 59.6289 34.4783 59.1309 34.7439 58.6816C35.0134 58.2324 35.3728 57.875 35.822 57.6094C36.2712 57.3398 36.7693 57.2051 37.3162 57.2051C37.8201 57.2051 38.2849 57.3223 38.7107 57.5566C39.1404 57.7871 39.49 58.1016 39.7595 58.5C40.033 58.8945 40.199 59.3457 40.2576 59.8535L40.2693 60.1699L40.2517 60.7383H35.5584C35.5974 60.9844 35.783 61.2559 36.115 61.5527C36.4509 61.8496 36.8513 61.998 37.3162 61.998C37.7615 61.998 38.2185 61.7988 38.6873 61.4004L39.4841 62.209C39.074 62.5684 38.7029 62.8125 38.3709 62.9414C38.0388 63.0703 37.6873 63.1348 37.3162 63.1348ZM39.0681 59.6016C39.0291 59.3555 38.8416 59.0859 38.5056 58.793C38.1697 58.4961 37.7712 58.3477 37.3103 58.3477C36.8533 58.3477 36.4548 58.4961 36.115 58.793C35.7791 59.0859 35.5916 59.3555 35.5525 59.6016H39.0681ZM42.7007 63.0469H41.5581V57.2754H42.7007V57.627C42.689 57.6426 42.6831 57.6543 42.6831 57.6621C42.6831 57.6699 42.689 57.6738 42.7007 57.6738C42.7437 57.6738 42.9058 57.6074 43.187 57.4746C43.4722 57.3418 43.812 57.2754 44.2066 57.2754C44.7808 57.2754 45.3804 57.5039 46.0054 57.9609L45.1909 58.7695C44.8277 58.5352 44.4995 58.418 44.2066 58.418C43.9839 58.418 43.7749 58.4629 43.5796 58.5527C43.3882 58.6426 43.2222 58.7656 43.0816 58.9219C42.8277 59.207 42.7007 59.541 42.7007 59.9238V63.0469ZM14.7728 73.0469H13.6302V64.6094H17.808C18.4798 64.6094 19.0677 64.8301 19.5716 65.2715C19.8646 65.5176 20.0951 65.8184 20.263 66.1738C20.431 66.5293 20.515 66.9121 20.515 67.3223C20.515 67.8145 20.392 68.2656 20.1459 68.6758C19.8998 69.0859 19.5736 69.4141 19.1673 69.6602C18.7611 69.9023 18.308 70.0254 17.808 70.0293H14.7728V73.0469ZM17.808 68.8926C18.2416 68.8926 18.6107 68.7402 18.9154 68.4355C19.224 68.127 19.3783 67.7559 19.3783 67.3223C19.3783 66.8887 19.224 66.5195 18.9154 66.2148C18.6107 65.9062 18.2416 65.752 17.808 65.752H14.7728V68.8926H17.808ZM24.9796 73.1348C24.4366 73.1348 23.9405 73.002 23.4913 72.7363C23.0421 72.4707 22.6827 72.1133 22.4132 71.6641C22.1476 71.2148 22.0148 70.7168 22.0148 70.1699C22.0148 69.623 22.1476 69.127 22.4132 68.6816C22.6827 68.2324 23.0421 67.875 23.4913 67.6094C23.9405 67.3398 24.4366 67.2051 24.9796 67.2051C25.5265 67.2051 26.0245 67.3398 26.4738 67.6094C26.923 67.875 27.2804 68.2324 27.546 68.6816C27.8155 69.127 27.9503 69.623 27.9503 70.1699C27.9503 70.7168 27.8155 71.2148 27.546 71.6641C27.2804 72.1133 26.923 72.4707 26.4738 72.7363C26.0245 73.002 25.5265 73.1348 24.9796 73.1348ZM24.9796 71.998C25.3155 71.998 25.6222 71.916 25.8995 71.752C26.1769 71.584 26.3976 71.3633 26.5616 71.0898C26.7257 70.8125 26.8077 70.5059 26.8077 70.1699C26.8077 69.834 26.7257 69.5293 26.5616 69.2559C26.3976 68.9785 26.1769 68.7578 25.8995 68.5938C25.6222 68.4297 25.3155 68.3477 24.9796 68.3477C24.6437 68.3477 24.337 68.4297 24.0597 68.5938C23.7863 68.7578 23.5675 68.9785 23.4034 69.2559C23.2394 69.5293 23.1573 69.834 23.1573 70.1699C23.1573 70.5059 23.2394 70.8125 23.4034 71.0898C23.5675 71.3633 23.7863 71.584 24.0597 71.752C24.337 71.916 24.6437 71.998 24.9796 71.998ZM30.5341 73.0469H29.3915V64.5918H30.5341V73.0469ZM35.1979 73.1348C34.6549 73.1348 34.1588 73.002 33.7096 72.7363C33.2604 72.4707 32.901 72.1133 32.6315 71.6641C32.3659 71.2148 32.233 70.7168 32.233 70.1699C32.233 69.623 32.3659 69.127 32.6315 68.6816C32.901 68.2324 33.2604 67.875 33.7096 67.6094C34.1588 67.3398 34.6549 67.2051 35.1979 67.2051C35.7448 67.2051 36.2428 67.3398 36.692 67.6094C37.1413 67.875 37.4987 68.2324 37.7643 68.6816C38.0338 69.127 38.1686 69.623 38.1686 70.1699C38.1686 70.7168 38.0338 71.2148 37.7643 71.6641C37.4987 72.1133 37.1413 72.4707 36.692 72.7363C36.2428 73.002 35.7448 73.1348 35.1979 73.1348ZM35.1979 71.998C35.5338 71.998 35.8405 71.916 36.1178 71.752C36.3952 71.584 36.6159 71.3633 36.7799 71.0898C36.944 70.8125 37.026 70.5059 37.026 70.1699C37.026 69.834 36.944 69.5293 36.7799 69.2559C36.6159 68.9785 36.3952 68.7578 36.1178 68.5938C35.8405 68.4297 35.5338 68.3477 35.1979 68.3477C34.862 68.3477 34.5553 68.4297 34.278 68.5938C34.0045 68.7578 33.7858 68.9785 33.6217 69.2559C33.4577 69.5293 33.3756 69.834 33.3756 70.1699C33.3756 70.5059 33.4577 70.8125 33.6217 71.0898C33.7858 71.3633 34.0045 71.584 34.278 71.752C34.5553 71.916 34.862 71.998 35.1979 71.998Z" fill="#FFD842"/>
</svg>
