<svg width="40" height="40" viewBox="0 0 40 40" fill="none" xmlns="http://www.w3.org/2000/svg">
<g id="ph:phone-call-fill">
<path id="Vector" d="M23.7922 5.92649C23.8346 5.76785 23.9079 5.61913 24.0078 5.48882C24.1078 5.35851 24.2324 5.24917 24.3746 5.16704C24.5168 5.08491 24.6738 5.03161 24.8366 5.01017C24.9994 4.98874 25.1648 4.99959 25.3235 5.04212C27.6407 5.64672 29.755 6.85812 31.4484 8.55155C33.1418 10.245 34.3532 12.3592 34.9578 14.6765C35.0004 14.8351 35.0112 15.0005 34.9898 15.1634C34.9683 15.3262 34.915 15.4832 34.8329 15.6254C34.7508 15.7676 34.6414 15.8922 34.5111 15.9921C34.3808 16.092 34.2321 16.1653 34.0735 16.2077C33.9679 16.2355 33.8592 16.2497 33.75 16.2499C33.4748 16.25 33.2072 16.1592 32.9888 15.9917C32.7704 15.8242 32.6134 15.5892 32.5422 15.3234C32.0493 13.4314 31.0608 11.7051 29.6784 10.3225C28.2961 8.93988 26.57 7.95098 24.6781 7.45774C24.5194 7.41548 24.3705 7.34232 24.24 7.24247C24.1095 7.14261 24 7.01801 23.9177 6.87579C23.8354 6.73357 23.782 6.57653 23.7605 6.41364C23.7389 6.25074 23.7497 6.08521 23.7922 5.92649ZM23.4281 12.4577C25.5828 13.0327 26.9672 14.4187 27.5422 16.5734C27.6134 16.8392 27.7704 17.0742 27.9888 17.2417C28.2072 17.4092 28.4748 17.5 28.75 17.4999C28.8592 17.4997 28.9679 17.4855 29.0735 17.4577C29.2321 17.4153 29.3808 17.342 29.5111 17.2421C29.6414 17.1422 29.7508 17.0176 29.8329 16.8754C29.915 16.7332 29.9683 16.5762 29.9898 16.4134C30.0112 16.2505 30.0004 16.0851 29.9578 15.9265C29.1578 12.9327 27.0672 10.8421 24.0735 10.0421C23.9148 9.99974 23.7494 9.98903 23.5867 10.0106C23.4239 10.0321 23.267 10.0855 23.1249 10.1677C22.9828 10.2499 22.8582 10.3593 22.7584 10.4896C22.6586 10.6199 22.5854 10.7687 22.543 10.9273C22.5006 11.0859 22.4899 11.2513 22.5114 11.414C22.533 11.5768 22.5864 11.7337 22.6686 11.8758C22.7508 12.0179 22.8602 12.1425 22.9905 12.2423C23.1208 12.3422 23.2695 12.4154 23.4281 12.4577ZM34.7453 24.7593L27.3844 21.4609L27.3641 21.4515C26.9819 21.288 26.5651 21.2225 26.1512 21.2607C25.7374 21.2988 25.3395 21.4396 24.9938 21.6702C24.9531 21.6971 24.9139 21.7263 24.8766 21.7577L21.0735 24.9999C18.6641 23.8296 16.1766 21.3609 15.0063 18.9827L18.2531 15.1218C18.2844 15.0827 18.3141 15.0437 18.3422 15.0015C18.5679 14.6567 18.7048 14.2614 18.7408 13.8508C18.7768 13.4403 18.7107 13.0272 18.5485 12.6484V12.6296L15.2406 5.25618C15.0262 4.76128 14.6574 4.34901 14.1894 4.08093C13.7213 3.81284 13.1792 3.7033 12.6438 3.76868C10.5265 4.04728 8.58311 5.08707 7.17647 6.69383C5.76984 8.30059 4.99619 10.3644 5.00001 12.4999C5.00001 24.9062 15.0938 34.9999 27.5 34.9999C29.6355 35.0038 31.6994 34.2301 33.3061 32.8235C34.9129 31.4168 35.9527 29.4734 36.2313 27.3562C36.2968 26.821 36.1875 26.2789 35.9197 25.8109C35.6519 25.3429 35.2399 24.974 34.7453 24.7593Z" fill="#FFFCF2"/>
</g>
</svg>
