<svg width="32" height="32" viewBox="0 0 32 32" fill="none" xmlns="http://www.w3.org/2000/svg">
<g opacity="0.75">
<path d="M16 4C9.376 4 4 9.376 4 16C4 22.624 9.376 28 16 28C22.624 28 28 22.624 28 16C28 9.376 22.624 4 16 4ZM21.568 12.16C21.388 14.056 20.608 18.664 20.212 20.788C20.044 21.688 19.708 21.988 19.396 22.024C18.7 22.084 18.172 21.568 17.5 21.124C16.444 20.428 15.844 19.996 14.824 19.324C13.636 18.544 14.404 18.112 15.088 17.416C15.268 17.236 18.34 14.44 18.4 14.188C18.4083 14.1498 18.4072 14.1102 18.3968 14.0726C18.3863 14.0349 18.3668 14.0004 18.34 13.972C18.268 13.912 18.172 13.936 18.088 13.948C17.98 13.972 16.3 15.088 13.024 17.296C12.544 17.62 12.112 17.788 11.728 17.776C11.296 17.764 10.48 17.536 9.868 17.332C9.112 17.092 8.524 16.96 8.572 16.54C8.596 16.324 8.896 16.108 9.46 15.88C12.964 14.356 15.292 13.348 16.456 12.868C19.792 11.476 20.476 11.236 20.932 11.236C21.028 11.236 21.256 11.26 21.4 11.38C21.52 11.476 21.556 11.608 21.568 11.704C21.556 11.776 21.58 11.992 21.568 12.16Z" fill="#FFFCF2"/>
</g>
</svg>
