<svg width="32" height="32" viewBox="0 0 32 32" fill="none" xmlns="http://www.w3.org/2000/svg">
<g opacity="0.75">
<path d="M19.6876 4H12.3244C5.5996 4 4 5.5996 4 12.3124V19.6756C4 26.3992 5.5876 28 12.3124 28H19.6756C26.3992 28 28 26.4124 28 19.6876V12.3244C28 5.5996 26.4124 4 19.6876 4ZM23.3752 21.124H21.6244C20.962 21.124 20.7628 20.5876 19.5748 19.3996C18.538 18.4 18.1 18.2752 17.8372 18.2752C17.4748 18.2752 17.3752 18.3748 17.3752 18.8752V20.4496C17.3752 20.8756 17.2372 21.1252 16.1248 21.1252C15.0452 21.0527 13.9983 20.7247 13.0703 20.1682C12.1423 19.6118 11.3598 18.8429 10.7872 17.9248C9.4278 16.2328 8.48193 14.247 8.0248 12.1252C8.0248 11.8624 8.1244 11.6248 8.6248 11.6248H10.3744C10.8244 11.6248 10.9864 11.8252 11.1628 12.2872C12.0124 14.788 13.462 16.9624 14.05 16.9624C14.2756 16.9624 14.374 16.8628 14.374 16.3V13.7248C14.2996 12.55 13.6756 12.4504 13.6756 12.0256C13.6836 11.9136 13.735 11.809 13.8187 11.7342C13.9025 11.6594 14.0122 11.6201 14.1244 11.6248H16.8748C17.2504 11.6248 17.3752 11.812 17.3752 12.262V15.7372C17.3752 16.1128 17.5372 16.2376 17.65 16.2376C17.8756 16.2376 18.0496 16.1128 18.4624 15.7C19.349 14.6187 20.0734 13.4141 20.6128 12.124C20.6679 11.969 20.7723 11.8364 20.9098 11.7462C21.0474 11.6561 21.2107 11.6135 21.3748 11.6248H23.1256C23.65 11.6248 23.7616 11.8876 23.65 12.262C23.0134 13.6881 22.2257 15.0419 21.3004 16.3C21.112 16.588 21.0364 16.738 21.3004 17.0752C21.4744 17.338 22.0876 17.8504 22.5004 18.3376C23.1003 18.936 23.5984 19.6283 23.9752 20.3872C24.1252 20.8744 23.8744 21.124 23.3752 21.124Z" fill="#FFFCF2"/>
</g>
</svg>
